<?xml version="1.0" encoding="UTF-8" standalone="no"?>
<!-- Created with Inkscape (http://www.inkscape.org/) -->

<svg
   width="118.75026mm"
   height="132.17342mm"
   viewBox="0 0 118.75026 132.17342"
   version="1.1"
   id="svg5"
   inkscape:version="1.2 (dc2aedaf03, 2022-05-15)"
   sodipodi:docname="path2.svg"
   xml:space="preserve"
   xmlns:inkscape="http://www.inkscape.org/namespaces/inkscape"
   xmlns:sodipodi="http://sodipodi.sourceforge.net/DTD/sodipodi-0.dtd"
   xmlns="http://www.w3.org/2000/svg"
   xmlns:svg="http://www.w3.org/2000/svg"><sodipodi:namedview
     id="namedview7"
     pagecolor="#ffffff"
     bordercolor="#000000"
     borderopacity="0.25"
     inkscape:showpageshadow="2"
     inkscape:pageopacity="0.0"
     inkscape:pagecheckerboard="0"
     inkscape:deskcolor="#d1d1d1"
     inkscape:document-units="mm"
     showgrid="false"
     inkscape:zoom="4.3087087"
     inkscape:cx="129.50516"
     inkscape:cy="314.24728"
     inkscape:window-width="2560"
     inkscape:window-height="1009"
     inkscape:window-x="-8"
     inkscape:window-y="-8"
     inkscape:window-maximized="1"
     inkscape:current-layer="layer1" /><defs
     id="defs2"><filter
       inkscape:collect="always"
       style="color-interpolation-filters:sRGB"
       id="filter50"
       x="-0.068610755"
       y="-0.10467463"
       width="1.1372215"
       height="1.2093493"><feGaussianBlur
         inkscape:collect="always"
         stdDeviation="1.2986577"
         id="feGaussianBlur50" /></filter><filter
       inkscape:collect="always"
       style="color-interpolation-filters:sRGB"
       id="filter51"
       x="-0.055473942"
       y="-0.087305311"
       width="1.1109479"
       height="1.1746106"><feGaussianBlur
         inkscape:collect="always"
         stdDeviation="1.2986577"
         id="feGaussianBlur51" /></filter><filter
       inkscape:collect="always"
       style="color-interpolation-filters:sRGB"
       id="filter52"
       x="-0.042376257"
       y="-0.080700391"
       width="1.0847525"
       height="1.1614008"><feGaussianBlur
         inkscape:collect="always"
         stdDeviation="1.2986577"
         id="feGaussianBlur52" /></filter><filter
       inkscape:collect="always"
       style="color-interpolation-filters:sRGB"
       id="filter53"
       x="-0.048780979"
       y="-0.053342235"
       width="1.097562"
       height="1.1066845"><feGaussianBlur
         inkscape:collect="always"
         stdDeviation="1.2986577"
         id="feGaussianBlur53" /></filter><filter
       inkscape:collect="always"
       style="color-interpolation-filters:sRGB"
       id="filter54"
       x="-1.3502457"
       y="-0.85953609"
       width="3.7004914"
       height="2.7190722"><feGaussianBlur
         inkscape:collect="always"
         stdDeviation="1.2986577"
         id="feGaussianBlur54" /></filter><filter
       inkscape:collect="always"
       style="color-interpolation-filters:sRGB"
       id="filter55"
       x="-1.1226798"
       y="-0.85640166"
       width="3.2453596"
       height="2.7128033"><feGaussianBlur
         inkscape:collect="always"
         stdDeviation="1.2986577"
         id="feGaussianBlur55" /></filter><filter
       inkscape:collect="always"
       style="color-interpolation-filters:sRGB"
       id="filter56"
       x="-1.1132059"
       y="-0.85601872"
       width="3.2264117"
       height="2.7120374"><feGaussianBlur
         inkscape:collect="always"
         stdDeviation="1.2986577"
         id="feGaussianBlur56" /></filter><filter
       inkscape:collect="always"
       style="color-interpolation-filters:sRGB"
       id="filter57"
       x="-2.7638897"
       y="-1.7682834"
       width="6.5277794"
       height="4.5365668"><feGaussianBlur
         inkscape:collect="always"
         stdDeviation="1.2986577"
         id="feGaussianBlur57" /></filter><filter
       inkscape:collect="always"
       style="color-interpolation-filters:sRGB"
       id="filter58"
       x="-2.5705865"
       y="-1.6525844"
       width="6.141173"
       height="4.3051688"><feGaussianBlur
         inkscape:collect="always"
         stdDeviation="1.2986577"
         id="feGaussianBlur58" /></filter><filter
       inkscape:collect="always"
       style="color-interpolation-filters:sRGB"
       id="filter59"
       x="-1.4231241"
       y="-0.86237771"
       width="3.8462483"
       height="2.7247554"><feGaussianBlur
         inkscape:collect="always"
         stdDeviation="1.2986577"
         id="feGaussianBlur59" /></filter><filter
       inkscape:collect="always"
       style="color-interpolation-filters:sRGB"
       id="filter60"
       x="-2.867764"
       y="-2.0113286"
       width="6.735528"
       height="5.0226572"><feGaussianBlur
         inkscape:collect="always"
         stdDeviation="1.2986577"
         id="feGaussianBlur60" /></filter><filter
       inkscape:collect="always"
       style="color-interpolation-filters:sRGB"
       id="filter61"
       x="-2.1480277"
       y="-1.7118951"
       width="5.2960553"
       height="4.4237902"><feGaussianBlur
         inkscape:collect="always"
         stdDeviation="1.2986577"
         id="feGaussianBlur61" /></filter><filter
       inkscape:collect="always"
       style="color-interpolation-filters:sRGB"
       id="filter62"
       x="-2.0660339"
       y="-1.3579827"
       width="5.1320678"
       height="3.7159654"><feGaussianBlur
         inkscape:collect="always"
         stdDeviation="1.2986577"
         id="feGaussianBlur62" /></filter><filter
       inkscape:collect="always"
       style="color-interpolation-filters:sRGB"
       id="filter63"
       x="-2.146273"
       y="-1.7214377"
       width="5.292546"
       height="4.4428755"><feGaussianBlur
         inkscape:collect="always"
         stdDeviation="1.2986577"
         id="feGaussianBlur63" /></filter><filter
       inkscape:collect="always"
       style="color-interpolation-filters:sRGB"
       id="filter64"
       x="-2.1533723"
       y="-1.7725405"
       width="5.3067447"
       height="4.545081"><feGaussianBlur
         inkscape:collect="always"
         stdDeviation="1.2986577"
         id="feGaussianBlur64" /></filter><filter
       inkscape:collect="always"
       style="color-interpolation-filters:sRGB"
       id="filter65"
       x="-0.081600138"
       y="-0.23333271"
       width="1.1632003"
       height="1.4666654"><feGaussianBlur
         inkscape:collect="always"
         stdDeviation="1.2986577"
         id="feGaussianBlur65" /></filter><filter
       inkscape:collect="always"
       style="color-interpolation-filters:sRGB"
       id="filter66"
       x="-1.1171359"
       y="-0.82658611"
       width="3.2342718"
       height="2.6531722"><feGaussianBlur
         inkscape:collect="always"
         stdDeviation="1.2986577"
         id="feGaussianBlur66" /></filter><filter
       inkscape:collect="always"
       style="color-interpolation-filters:sRGB"
       id="filter67"
       x="-1.0979589"
       y="-0.81049412"
       width="3.1959178"
       height="2.6209882"><feGaussianBlur
         inkscape:collect="always"
         stdDeviation="1.2986577"
         id="feGaussianBlur67" /></filter><filter
       inkscape:collect="always"
       style="color-interpolation-filters:sRGB"
       id="filter68"
       x="-2.2323663"
       y="-1.6073439"
       width="5.4647325"
       height="4.2146878"><feGaussianBlur
         inkscape:collect="always"
         stdDeviation="1.2986577"
         id="feGaussianBlur68" /></filter><filter
       inkscape:collect="always"
       style="color-interpolation-filters:sRGB"
       id="filter69"
       x="-2.8431506"
       y="-2.2097783"
       width="6.6863012"
       height="5.4195566"><feGaussianBlur
         inkscape:collect="always"
         stdDeviation="1.2986577"
         id="feGaussianBlur69" /></filter><filter
       inkscape:collect="always"
       style="color-interpolation-filters:sRGB"
       id="filter70"
       x="-2.8153084"
       y="-2.1716082"
       width="6.6306168"
       height="5.3432163"><feGaussianBlur
         inkscape:collect="always"
         stdDeviation="1.2986577"
         id="feGaussianBlur70" /></filter></defs><g
     inkscape:label="Camada 1"
     inkscape:groupmode="layer"
     id="layer1"
     transform="translate(256.54477,-371.00452)"><path
       style="fill:#a02c2c;fill-opacity:1;stroke-width:0.178079;filter:url(#filter50)"
       d="m -184.05329,431.29148 c -0.70949,0.75997 -1.43728,1.51607 -2.13784,2.28584 -0.24254,0.21086 -0.59773,0.10493 -0.77682,-0.13313 -0.23394,-0.21682 -0.5765,-0.26078 -0.76314,-0.52051 -0.2697,-0.0606 -0.44957,-0.29843 -0.70282,-0.39495 -0.14698,-0.19689 -0.40543,-0.20945 -0.55662,-0.40322 -0.22144,-0.0689 -0.3602,-0.27988 -0.57988,-0.34853 -0.18315,-0.17839 -0.44264,-0.23976 -0.58733,-0.45599 -0.43152,-0.0925 -0.81885,0.26652 -1.25223,0.23615 -0.64704,0.0282 -1.23981,0.30006 -1.89054,0.31519 -0.33158,0.0465 -0.67454,0.26655 -0.99809,0.0518 -0.48682,-0.12849 -0.9961,-0.13794 -1.46753,-0.32778 -0.25216,-0.0256 -0.66001,-0.1293 -0.80932,0.136 -0.11911,0.3383 -0.37398,0.62375 -0.51296,0.96056 -0.20349,0.3078 -0.30984,0.76735 -0.74168,0.82407 -0.56293,0.051 -1.14242,-0.078 -1.71511,-0.0571 -0.41843,0.008 -0.86762,-0.0613 -1.26791,-0.006 -0.0398,0.58545 0.31275,1.11375 0.24225,1.70282 -0.0325,0.5361 0.0869,1.10749 -0.0854,1.61914 -0.28944,0.14106 -0.6483,-0.0387 -0.95361,-0.0847 -1.48926,-0.16299 -3.00059,-0.0821 -4.4814,-0.3188 -0.6016,-0.028 -1.21445,-0.0448 -1.77044,-0.30042 -0.37327,-0.0877 -0.71498,-0.27334 -1.09405,-0.35441 -0.29257,-0.20959 -0.67269,-0.15108 -0.95995,-0.36292 -0.28905,-0.10771 -0.61306,-0.0997 -0.86437,-0.29253 -0.28944,-0.0876 -0.6041,-0.10476 -0.85814,-0.28484 -0.23807,-0.0699 -0.51065,-0.0385 -0.71037,-0.21444 -0.27196,-0.12815 -0.5924,-0.11708 -0.83523,-0.30524 -0.43314,-0.086 -0.8243,-0.28952 -1.25296,-0.39002 -0.56752,-0.33416 -1.25352,-0.13059 -1.87446,-0.14518 -0.86712,0.0793 -1.72508,0.22106 -2.59935,0.23908 -0.92218,0.0846 -1.83671,0.2346 -2.76579,0.25232 -0.35895,0.0325 -0.96537,0.008 -1.05281,0.46501 0.0247,0.56331 0.14675,1.11835 0.1261,1.68802 0.0482,1.43635 0.0566,2.87477 0.0827,4.31208 0.85012,0.11438 1.70874,-0.18386 2.56733,-0.20964 0.88956,-0.0894 1.76456,-0.306 2.66396,-0.208 0.55374,0.0548 1.09256,0.22631 1.65489,0.24086 0.64134,0.15027 1.29513,0.22609 1.94666,0.30703 0.64368,0.24509 1.37608,0.0892 1.99968,0.39087 0.61168,0.0949 1.24361,0.0509 1.82601,0.29084 0.40297,0.11747 0.87722,-0.0735 1.24048,0.15088 0.13673,0.14382 0.35443,0.16052 0.45156,0.3351 0.59703,0.30889 1.07009,0.81242 1.64586,1.16013 0.24896,0.19754 0.45982,0.44128 0.75631,0.56165 0.51541,0.40719 1.07936,0.73982 1.57427,1.1762 0.28258,0.17932 0.54836,0.38787 0.78773,0.60364 0.22302,0.0405 0.31087,0.27547 0.53611,0.33629 0.52753,0.41046 0.97911,0.93775 1.5005,1.34135 0.0104,0.19631 0.29568,0.18952 0.31771,0.39363 0.56521,0.41447 1.04803,0.96441 1.58727,1.42313 0.67481,0.58978 1.27806,1.26716 1.97132,1.83106 0.10723,0.0702 0.12574,0.26195 0.28904,0.26386 0.0667,0.15304 0.19836,0.2488 0.31891,0.34889 0.0423,0.19298 0.31607,0.23364 0.41762,0.40571 0.53578,0.49967 1.06953,0.99914 1.63097,1.46995 0.44802,0.29433 0.94749,-0.14539 1.4234,-0.10002 0.77283,-0.0392 1.55197,-0.0419 2.30827,-0.21709 0.6983,-0.0509 1.41313,-0.12975 2.10641,-0.0458 0.081,0.69764 0.10448,1.40855 0.28053,2.09382 -0.11255,0.47802 -0.49293,0.8414 -0.73316,1.2532 -0.0615,0.15606 -0.26809,0.22159 -0.27825,0.4127 -0.19519,0.34105 -0.52864,0.58695 -0.67435,0.96133 -0.24735,0.33833 -0.49462,0.66911 -0.72241,1.02371 -0.1622,0.13829 -0.1768,0.36448 -0.3736,0.46954 -0.10434,0.25396 -0.30669,0.45878 -0.41641,0.71002 -0.19309,0.14175 0.0987,0.21251 0.21528,0.20017 0.34945,0.0478 0.62508,0.29082 0.98311,0.32646 0.29874,0.19599 0.6619,0.19566 0.97027,0.37528 0.24119,0.0693 0.48508,0.12813 0.67415,0.29648 0.36624,0.0866 0.42673,-0.40268 0.60016,-0.60747 0.17358,-0.21687 0.42256,-0.37087 0.66072,-0.48034 0.10374,-0.17946 0.38273,-0.18899 0.48957,-0.37432 0.20379,-0.0647 0.37088,-0.18048 0.52304,-0.31771 0.21431,-0.049 0.31731,-0.25386 0.53683,-0.31075 0.15536,-0.13187 0.29115,-0.26109 0.48777,-0.32898 0.39854,-0.28735 0.83665,-0.54352 1.25344,-0.78329 0.15296,-0.1865 0.44227,-0.20965 0.57821,-0.4073 0.23962,-0.0358 0.31702,-0.28292 0.54738,-0.35069 0.70804,-0.61454 1.27063,-1.38334 1.94034,-2.04062 0.45944,-0.49908 0.94913,-0.9771 1.40356,-1.47611 -0.13069,-1.14514 -0.27744,-2.31063 -0.15519,-3.45952 0.14652,-0.14092 0.20097,-0.33006 0.23255,-0.52424 0.11138,-0.12167 0.2487,-0.2412 0.22368,-0.43008 0.11141,-0.25142 0.28433,-0.47495 0.35572,-0.74948 0.19865,-0.18932 0.18567,-0.51399 0.38092,-0.72141 0.0778,-0.32548 0.29886,-0.58637 0.41581,-0.89999 0.17708,-0.26055 0.22824,-0.57585 0.41522,-0.83366 0.0328,-0.29118 0.31654,-0.47154 0.34049,-0.77442 0.12168,-0.17972 0.24024,-0.35594 0.26482,-0.57641 0.18688,-0.22704 0.28201,-0.51998 0.27537,-0.81412 -0.99319,-0.95582 -1.98657,-1.91144 -2.9787,-2.86836 -0.0252,-0.97399 -0.083,-1.97396 0.19705,-2.91549 0.12367,-1.12861 0.0218,-2.28222 0.26656,-3.39399 0.10355,-0.86071 -0.0153,-1.75239 0.17432,-2.59508 0.0823,-0.19471 0.30601,-0.47988 0.15987,-0.68087 -1.30652,-0.0928 -2.63223,-0.0266 -3.94549,-0.0462 -0.20813,2e-4 -0.41626,5.2e-4 -0.62438,5.2e-4 z m -10.3054,6.10265 c 0.23293,0.0608 0.46964,0.22727 0.43116,0.49677 0.13232,0.26623 0.2602,0.5344 0.33462,0.82779 0.20181,0.32616 0.27157,0.71944 0.43645,1.06166 0.001,0.1255 0.0646,0.24897 0.0961,0.34781 -0.20216,0.31009 -0.80273,0.10577 -0.69922,-0.28676 -0.0186,-0.23805 -0.20495,-0.42104 -0.34182,-0.59416 -0.19014,-0.041 -0.49672,-0.10215 -0.63373,0.0535 -0.19674,0.20924 -0.28015,0.48013 -0.35657,0.75235 -0.0676,0.25392 -0.55158,0.27132 -0.50924,-0.0445 -0.0309,-0.28417 -0.25641,0.0582 -0.33906,0.1384 -0.33279,0.23276 -0.79453,0.12251 -1.17956,0.14728 -0.29927,0.0587 -0.37043,-0.26766 -0.31663,-0.49581 -2.5e-4,-0.10585 0.12342,-0.40343 0.20737,-0.17403 0.0858,0.29843 0.389,0.35278 0.65796,0.3122 0.24295,0.0594 0.50971,-0.12855 0.40059,-0.39123 -0.11929,-0.25921 -0.409,-0.31983 -0.65497,-0.37324 -0.0987,-0.11764 -0.20528,-0.22689 -0.36976,-0.23423 -0.3585,-0.25503 -0.40019,-0.86445 -0.12497,-1.19107 0.3469,-0.34484 0.90012,-0.19465 1.33331,-0.19238 0.32971,0.016 0.2515,0.6898 -0.0573,0.60459 -0.10513,-0.13925 -0.19105,-0.35032 -0.41125,-0.29348 -0.22072,-0.0377 -0.48761,0.0603 -0.41522,0.3297 0.0604,0.44869 0.62948,0.38621 0.89664,0.64369 0.17346,0.0854 0.20997,0.27229 0.35296,0.37684 0.0739,0.16452 -0.0376,0.55048 0.19226,0.57581 0.0979,-0.24834 0.13016,-0.52673 0.29408,-0.74972 0.0582,-0.21464 0.14967,-0.40613 0.26649,-0.58192 0.0194,-0.33271 0.28171,-0.55547 0.33666,-0.87684 0.0381,-0.0672 0.0814,-0.18274 0.17271,-0.18902 z m 7.55733,0.003 c 0.22007,0.049 0.26574,0.29262 0.36161,0.44903 0.22955,0.18207 0.12016,0.5781 0.34817,0.78342 0.0971,0.23807 0.0993,0.51257 0.27105,0.72129 0.0973,0.24862 0.11969,0.53128 0.29336,0.73975 -0.10758,0.23082 -0.54948,0.2977 -0.62726,-0.0103 -0.17316,-0.21602 -0.17696,-0.50233 -0.29456,-0.73341 -0.22442,-0.15471 -0.58423,-0.20064 -0.82251,-0.063 -0.22208,0.26641 -0.25879,0.63498 -0.40838,0.92877 -0.16772,0.12722 -0.43128,-0.0483 -0.29372,-0.24502 0.0325,-0.2249 0.0635,-0.45102 0.23903,-0.61155 0.0756,-0.22992 0.0752,-0.48817 0.25042,-0.67943 0.0814,-0.2943 0.23291,-0.55486 0.34697,-0.83355 -0.006,-0.21593 0.12098,-0.39923 0.33582,-0.44604 z m -5.7336,0.005 c 0.51526,0.2248 0.69365,0.80867 1.07191,1.18517 0.18883,0.20238 0.36425,0.51412 0.58883,0.61674 0.0426,-0.52967 -0.0758,-1.09448 0.0568,-1.60749 0.19404,-0.1543 0.32396,0.0879 0.29815,0.26793 0.0139,0.77032 0.0779,1.56012 -0.0395,2.3235 -0.2046,0.23616 -0.51692,-0.0654 -0.62773,-0.26373 -0.17899,-0.1447 -0.19434,-0.39132 -0.40766,-0.50481 -0.0915,-0.23851 -0.34338,-0.3858 -0.39987,-0.64849 -0.144,-0.0666 -0.1641,-0.24834 -0.26697,-0.34865 -0.22545,0.16809 -0.0879,0.54617 -0.11898,0.79013 -0.032,0.3343 0.14428,0.74262 -0.0673,1.0312 -0.19362,0.22966 -0.23348,-0.16811 -0.23699,-0.29696 -0.0286,-0.80925 -0.0983,-1.63318 -0.011,-2.43695 0.024,-0.0599 0.0963,-0.11115 0.16023,-0.10759 z m 3.65897,0.17163 c 0.32967,0.008 0.67283,-0.0161 0.99366,0.0271 0.0613,0.15161 0.055,0.58727 -0.20617,0.43728 -0.12411,-0.12454 -0.50814,-0.31248 -0.54786,-0.0275 -0.08,0.72498 0.0288,1.48524 -0.11994,2.19097 -0.17004,0.11976 -0.54967,0.13099 -0.50336,-0.16826 -0.0472,-0.69649 0.0183,-1.41534 -0.039,-2.09994 -0.28376,-0.10076 -0.6783,-0.0563 -0.76914,0.27537 -0.18891,0.17221 -0.27114,-0.20856 -0.25319,-0.33882 -0.0635,-0.30376 0.29025,-0.3004 0.4933,-0.28281 0.31714,-0.009 0.63442,-0.0123 0.95168,-0.0134 z m 0.74228,3.71498 c 0.23042,-0.0346 0.30582,0.16766 0.26649,0.36413 0.002,0.80785 0.0527,1.63064 -0.0643,2.42844 -0.15265,0.23183 -0.5591,0.0568 -0.51188,-0.22956 -0.10398,-0.75083 0.0623,-1.53365 -0.11502,-2.27145 -0.19519,-0.11615 -0.0319,-0.2482 0.11634,-0.26877 0.10434,-0.023 0.20388,-0.0293 0.30835,-0.0228 z m 1.10939,-5.2e-4 c 0.23773,-0.0228 0.23496,0.30548 0.42361,0.39662 0.19863,0.16716 0.28279,0.41518 0.42709,0.61035 0.2351,0.12843 0.29041,0.47617 0.57461,0.54882 0.13242,-0.31613 0.0307,-0.72771 0.0753,-1.07378 -0.0208,-0.21262 0.0727,-0.58846 0.3622,-0.45083 0.25135,0.26786 0.11668,0.71201 0.16131,1.04739 -0.003,0.55261 -0.0119,1.10516 -0.0175,1.65774 -0.20493,0.14755 -0.46639,0.16196 -0.6209,-0.0613 -0.18753,-0.15442 -0.17126,-0.4287 -0.38355,-0.55374 -0.2732,-0.28154 -0.45378,-0.66946 -0.73772,-0.92553 -0.18731,0.2724 -0.0736,0.6761 -0.0741,0.9951 -0.0111,0.23233 0.0385,0.67697 -0.30644,0.66467 -0.23644,0.0835 -0.17567,-0.32147 -0.20902,-0.45226 -0.0283,-0.78319 -0.043,-1.58742 -0.0156,-2.36165 0.10674,-0.0469 0.22843,-0.0434 0.34074,-0.0416 z m -12.06952,-5.3e-4 c 0.31117,-0.0244 0.69815,-0.0129 0.81004,0.34517 0.10903,0.14692 0.0581,0.58641 -0.1919,0.39243 -0.22648,-0.27419 -0.57598,-0.55614 -0.95084,-0.38668 -0.29246,0.14091 -0.69445,0.35378 -0.58828,0.73748 0.0539,0.31246 -0.11037,0.72705 0.11658,0.98455 0.14209,0.0942 0.16941,0.31709 0.39183,0.30331 0.24715,0.0416 0.50227,0.31471 0.74023,0.0938 0.18416,-0.14414 0.72146,-0.0937 0.54942,0.22668 -0.31087,0.0661 -0.5888,0.25856 -0.92098,0.23543 -0.47756,0.0626 -0.97617,-0.21681 -1.2502,-0.59547 -0.045,-0.16935 -0.27883,-0.22872 -0.26157,-0.44172 -0.0958,-0.53659 -0.0485,-1.17056 0.42864,-1.52222 0.15585,-0.15345 0.40136,-0.13273 0.53911,-0.31782 0.18492,-0.0767 0.39321,-0.0443 0.58792,-0.0549 z m 15.49354,5.3e-4 c 0.37482,-0.008 0.4261,0.4726 0.54271,0.74347 0.16455,0.25188 0.20931,0.54986 0.31591,0.81916 0.18674,0.28395 0.1685,0.66461 0.39386,0.93081 0.0431,0.21535 -0.10828,0.44861 -0.34469,0.36592 -0.23762,-0.0553 -0.271,-0.36457 -0.44328,-0.51212 -0.1355,-0.16201 0.0583,-0.5319 -0.27273,-0.43572 -0.24524,0.075 -0.83722,-0.19254 -0.76387,0.21888 -0.0231,0.2294 -0.26765,0.35193 -0.27417,0.58876 -0.0416,0.15904 -0.22079,0.29158 -0.31998,0.0998 -0.12852,-0.41671 0.22844,-0.76554 0.27369,-1.16684 0.10017,-0.17885 0.25308,-0.32915 0.25186,-0.55758 0.10871,-0.25095 0.28496,-0.4762 0.27705,-0.76866 0.009,-0.19626 0.15792,-0.35882 0.36364,-0.32586 z m -13.33615,0.007 c 0.25,-0.0552 0.34478,0.17416 0.4085,0.36388 0.25672,0.22402 0.1394,0.60244 0.3646,0.84591 0.12893,0.2205 0.0826,0.52726 0.28856,0.69874 0.0774,0.21959 0.0955,0.46407 0.21948,0.65796 0.0579,0.28152 -0.36378,0.44185 -0.48429,0.16791 -0.19243,-0.19385 -0.26984,-0.44868 -0.29588,-0.70822 -0.19782,-0.21649 -0.56242,-0.0988 -0.82252,-0.1023 -0.38156,0.11533 -0.30064,0.62279 -0.53527,0.86089 -0.0946,0.0542 -0.41333,0.098 -0.27321,-0.0984 0.0552,-0.3191 0.11659,-0.63816 0.2978,-0.91078 0.0522,-0.34778 0.33038,-0.60225 0.35896,-0.95396 0.15874,-0.21004 0.2079,-0.46263 0.25115,-0.7123 0.042,-0.0797 0.13764,-0.10899 0.22212,-0.10938 z m 4.28899,0.0392 c 0.002,-2.6e-4 0.006,-0.004 0,0 z m -3.08664,1.2e-4 c 7.9e-4,2.6e-4 0.005,-0.002 0,0 z m 3.07428,0.008 c 0.002,-5.3e-4 0.007,-0.006 0,0 z m 3.17912,0.003 c 0.006,0.003 -0.004,-0.002 0,0 z m -6.29622,0.004 c 0.002,-2.1e-4 0.008,-0.005 0,0 z m 3.10691,0.003 c 0.002,-8e-4 0.006,-0.006 0,0 z m -3.11063,0 c 0.002,-5.3e-4 0.006,-0.005 0,0 z m -0.003,0.003 c 0.002,-8e-4 0.007,-0.008 0,0 z m 6.31937,1.2e-4 c 0.006,0.004 -0.005,-0.003 0,0 z m -6.32489,0.007 c 0.001,-5.3e-4 0.004,-0.006 0,0 z m 3.1104,10e-4 c 0.001,-10e-4 0.004,-0.007 0,0 z m 1.65546,0.002 c 0.002,-8e-4 0.005,-0.005 0,0 z m -0.004,0.005 c 0.001,-7.9e-4 0.004,-0.006 0,0 z m -0.007,0.0109 c 0.001,-0.002 0.004,-0.008 0,0 z m -2.47114,0.003 c 0.005,0.004 -0.004,-0.004 0,0 z m 2.46574,0.0114 c 7.9e-4,-10e-4 0.002,-0.008 0,0 z m -2.45135,0.004 c 0.004,0.004 -0.005,-0.006 0,0 z m -2.32865,0.0321 c 5.3e-4,-7.9e-4 7.9e-4,-0.004 0,0 z m 2.35696,0.0226 c 0.002,0.004 -0.001,-0.005 0,0 z m 2.41944,0.057 c -5e-5,-0.001 -0.002,-0.005 0,0 z m -1.05531,0.002 c 8e-4,0.005 -1.1e-4,-0.003 0,0 z m 1.10532,0.0656 c -7.9e-4,-8e-4 -0.007,-0.003 0,0 z m -4.4774,0.16671 c -0.001,0.008 10e-4,-0.005 0,0 z m -0.001,0.006 c -0.001,0.004 0.002,-0.007 0,0 z m 6.46185,0.0553 c 0.002,0.003 -0.002,-0.003 0,0 z m 0.0163,0.0289 c 0.002,0.004 -0.002,-0.004 0,0 z m 0.0121,0.0278 c 0.002,0.005 -0.002,-0.004 0,0 z m -6.84241,0.005 c 1.4e-4,-10e-4 -0.001,-0.003 0,0 z m 6.85116,0.0228 c 0.002,0.005 -0.001,-0.005 0,0 z m -4.52694,0.14884 c -0.003,0.005 0.005,-0.007 0,0 z m -0.007,0.0102 c -0.005,0.006 0.005,-0.005 0,0 z m -0.009,0.009 c -0.005,0.005 0.006,-0.005 0,0 z m -0.16479,0.003 c -0.001,-0.002 -0.006,-0.005 0,0 z m -2.01454,-2.4e-4 c -0.007,0.005 0.003,-0.002 0,0 z m 2.17058,0.004 c -0.007,0.005 0.005,-0.003 0,0 z m -2.19313,0.004 c -0.002,-0.002 -0.0107,-0.005 0,0 z m 0,0 c -0.005,0.002 0.021,0.002 0,0 z m 0.0133,-0.002 c -0.008,0.004 0.009,-0.004 0,0 z m 2.03325,0.002 c -0.001,-10e-4 -0.006,-0.004 0,0 z m 0.7117,0.002 c 5.3e-4,-10e-4 1.2e-4,-0.004 0,0 z m -0.57665,0 c -0.006,0.003 0.006,-0.002 0,0 z m -0.12509,0.005 c -8e-4,-10e-4 -0.008,-0.004 0,0 z m 0.0207,0.007 c -0.001,-5.3e-4 -0.008,-0.002 0,0 z m 0.0383,0.002 c 0.004,6e-5 0.001,-2.7e-4 0,0 z m 1.93311,0.60567 c 0.002,0.003 -0.002,-0.004 0,0 z m 2.36056,0.13265 c 0.0124,0.003 -0.0115,-0.005 0,0 z m 0.004,0.002 c 0.008,0.004 -0.006,-0.004 0,0 z m -4.33217,0.87205 c 8e-4,-2.7e-4 0.003,-0.004 0,0 z m -0.0383,0.0814 c 0.001,-6e-5 8e-4,-0.005 0,0 z m 4.21427,0.18746 c -1e-5,-0.001 -0.003,-0.005 0,0 z m 0,0 c -0.007,-0.007 0.006,0.008 0,0 z m -5.02251,0.0196 c -0.001,0.005 10e-4,-0.002 0,0 z m 5.7438,0.0876 c 0.002,0.005 -0.002,-0.006 0,0 z m 0.005,0.0177 c 0.002,0.007 -0.001,-0.007 0,0 z m -2.60558,0.006 c -0.002,0.007 0.001,-0.003 0,0 z m 2.60726,0.009 c 5.3e-4,0.008 -1.2e-4,-0.005 0,0 z m -2.4e-4,0.007 c -1.4e-4,0.004 7.9e-4,-0.007 0,0 z m -2.03242,0.004 c -2.6e-4,-10e-4 -0.004,-0.004 0,0 z m 2.03194,-7.9e-4 c -0.001,0.008 0.001,-0.005 0,0 z m -2.6e-4,0.002 c -0.002,0.002 -0.001,0.005 0,0 z m -0.001,0.003 c -0.002,0.002 -0.003,0.006 0,0 z m -2.61758,0.008 c -0.004,0.008 0.005,-0.007 0,0 z m 2.61086,0.001 c -0.003,0.004 0.004,-0.004 0,0 z m -2.61806,0.009 c -0.006,0.007 0.007,-0.007 0,0 z m 0.61875,0.005 c -8e-4,-0.001 -0.006,-0.005 0,0 z m -0.62726,0.003 c -0.007,0.006 0.009,-0.006 0,0 z m 2.61062,-2.3e-4 c -0.003,0.003 0.004,-0.003 0,0 z m -4.90006,0.004 c -6e-5,-7.9e-4 -0.004,-0.005 0,0 z m -1.11192,0.001 c -5.3e-4,-7.9e-4 -0.004,-0.002 0,0 z m 3.39104,5.3e-4 c -0.007,0.003 0.007,-0.003 0,0 z m -0.0136,0.005 c -0.006,0.002 0.006,-0.002 0,0 z m -2.25861,0.002 c -5.3e-4,-0.002 -0.005,-0.005 0,0 z m 2.95207,0.009 c -0.001,-7.9e-4 -0.006,-0.002 0,0 z m -4.0328,10e-4 c -0.001,-8e-4 -0.006,-0.002 0,0 z m 1.09512,0.003 c -0.001,-0.001 -0.007,-0.004 0,0 z m -1.07761,0.002 c -0.001,-8e-4 -0.006,-8e-4 0,0 z m 1.08517,0.002 c -0.001,-10e-4 -0.007,-0.003 0,0 z m -1.03696,-2.3e-4 c -0.007,0.001 0.005,-5.3e-4 0,0 z m 1.09609,0.001 c -0.004,10e-4 0.004,-0.001 0,0 z m -1.11432,5.2e-4 c 0.008,5.3e-4 0.002,-5.2e-4 0,0 z m 1.06334,0.002 c -0.002,-0.001 -0.009,-0.002 0,0 z m 0.008,0.002 c -0.002,-5.3e-4 -0.008,-10e-4 0,0 z m 0.0168,5.3e-4 c 0.007,-1.4e-4 0.001,-5.3e-4 0,0 z m -0.007,2.4e-4 c -0.001,-5.3e-4 -0.008,-2e-4 0,0 z m 4.51039,2.4e-4 c -7.9e-4,-5.2e-4 -0.004,-5.2e-4 0,0 z"
       id="path10-4" /><path
       style="fill:#a02c2c;fill-opacity:1;stroke-width:0.178079;filter:url(#filter51)"
       d="m -210.02878,399.5668 c -2.19843,0.0345 -4.39225,0.18844 -6.5897,0.24191 -0.32762,-0.045 -0.52965,0.23921 -0.814,0.3165 -0.1323,0.20355 -0.38481,0.27179 -0.56933,0.42565 -0.30748,0.0377 -0.45291,0.35104 -0.72992,0.46979 -0.16829,0.0944 -0.35211,0.14239 -0.44028,0.33126 -0.38804,0.10157 -0.45399,0.55293 -0.65101,0.84506 -0.0443,0.31716 -0.31312,0.52733 -0.33414,0.85166 -0.05,0.18525 -0.29728,0.26839 -0.24982,0.49653 -0.0885,0.28178 -0.29309,0.51368 -0.3405,0.81459 -0.15716,0.1922 -0.17777,0.43465 -0.27681,0.64861 -0.23578,0.18615 -0.14585,0.52342 -0.33761,0.74132 -0.10104,0.27785 -0.19826,0.54489 -0.34422,0.79385 -0.017,0.21229 -0.15794,0.34481 -0.24394,0.5138 -0.0236,0.29588 -0.31478,0.46896 -0.31471,0.76878 -0.16024,0.23374 -0.27096,0.49051 -0.32395,0.77142 -0.10934,0.16842 -0.22733,0.33243 -0.22727,0.54451 -0.0767,0.17213 -0.25927,0.29589 -0.23496,0.50864 -0.12063,0.29514 -0.3036,0.56267 -0.38786,0.8766 -0.17113,0.20869 -0.12663,0.50865 -0.3441,0.68687 -0.0715,0.21045 -0.12493,0.42427 -0.26541,0.60663 -0.0676,0.46243 -0.47468,0.83982 -0.90551,0.98155 -0.26444,-0.005 -0.39871,0.31754 -0.68339,0.2521 -0.26408,0.0451 -0.43475,0.30619 -0.72621,0.29168 -0.19038,0.0607 -0.31923,0.21861 -0.53383,0.24107 -0.23368,0.0564 -0.47123,0.30873 -0.26349,0.53419 0.18642,0.41567 0.0897,0.90471 0.3303,1.2995 0.0868,0.5147 0.0847,1.05537 -0.13037,1.53432 -0.0835,0.51112 -0.11521,1.02066 -0.2888,1.50554 -0.0466,0.44568 -0.12949,0.87485 -0.26358,1.30129 -0.0333,0.46167 -0.15759,0.90168 -0.26762,1.34831 -0.0597,0.64308 -0.30502,1.24932 -0.33701,1.89593 -0.24187,0.64301 -0.87029,1.03105 -1.3048,1.53721 -0.22879,0.27925 -0.59838,0.49605 -0.74285,0.81304 0,0.85749 0,1.71499 0,2.57248 0.23067,-0.0848 0.51888,-0.16123 0.79361,-0.16695 0.24264,-0.0917 0.46009,-0.25695 0.73928,-0.24646 0.33189,-0.0296 0.57666,-0.30441 0.9151,-0.28545 0.32784,-0.033 0.57248,-0.30462 0.9139,-0.25978 0.34536,-0.0761 0.64839,-0.28264 1.0089,-0.31339 0.28946,-0.0457 0.63697,-0.40759 0.88152,-0.0896 0.22164,0.1735 0.25069,0.45059 0.35464,0.68507 0.20861,0.18218 0.15714,0.49596 0.36928,0.68315 0.0867,0.25899 0.25499,0.48052 0.34913,0.7322 0.0715,0.25284 0.23986,0.46675 0.29864,0.72512 0.20479,0.28964 0.28237,0.64173 0.48058,0.93514 -0.009,0.27814 0.32229,0.40683 0.25558,0.70305 0.046,0.60616 -0.0532,1.24694 0.0806,1.83813 0.21497,0.10141 0.46394,-0.0927 0.69739,-0.0477 0.96953,-0.0501 1.94191,-0.0738 2.90065,-0.23567 0.92166,-0.0517 1.84387,-0.11307 2.75263,-0.25194 0.59243,-0.0177 1.20875,-0.15503 1.78703,-0.007 0.32303,0.19157 0.7196,0.18889 1.02784,0.39962 0.2997,0.0416 0.56789,0.1574 0.83667,0.28209 0.34845,0.0246 0.63106,0.22875 0.96008,0.30835 0.36653,5.3e-4 0.62135,0.33456 0.99474,0.30488 0.28215,0.07 0.5208,0.25496 0.81927,0.26865 0.41745,0.19657 0.87221,0.27911 1.29074,0.46907 0.38998,0.0705 0.72926,0.29141 1.12139,0.34565 0.61932,0.33161 1.36536,0.17782 2.02186,0.38367 1.11054,0.10777 2.23057,0.0515 3.3433,0.12749 0.30214,0.0193 0.1354,-0.40706 0.15112,-0.58084 -0.1285,-0.65649 -0.24948,-1.31674 -0.2148,-1.99008 0.0489,-0.178 -0.0752,-0.50402 0.11502,-0.60256 1.25389,-0.0812 2.54144,0.0494 3.7957,0.0143 0.029,-0.27034 0.38292,-0.33104 0.33185,-0.62247 0.0351,-0.18423 0.27858,-0.25507 0.24959,-0.4693 0.1073,-0.21147 0.26216,-0.3957 0.35932,-0.61562 0.15475,-0.19414 0.29169,-0.51414 0.595,-0.41558 0.41303,0.13269 0.84882,0.21117 1.27335,0.26242 0.41317,0.16381 0.85519,0.22641 1.2857,0.32094 0.46785,0.20597 0.95809,-0.13467 1.44009,-0.12157 0.54978,-0.0705 1.07066,-0.27029 1.63036,-0.28465 0.45462,-0.11366 0.9311,-0.27121 1.39928,-0.14176 0.13803,0.19517 0.42705,0.22713 0.58301,0.41809 0.22016,0.028 0.28818,0.30008 0.52075,0.3074 0.18964,0.17539 0.47124,0.23143 0.58672,0.47314 0.27807,0.0883 0.53461,0.24202 0.74804,0.45359 0.2118,0.10049 0.40794,0.2225 0.60003,0.35069 0.36794,-0.0426 0.53793,-0.48258 0.79817,-0.69958 0.41414,-0.46092 0.84936,-0.90208 1.28222,-1.34531 1.96874,-0.006 3.94312,0.0127 5.90835,-0.009 0.27905,-0.24273 0.34007,-0.59642 0.53227,-0.88848 0.16354,-0.41415 -0.36532,-0.66668 -0.60356,-0.90181 -0.46506,-0.33726 -0.91451,-0.69859 -1.35305,-1.06512 -0.17316,-0.0537 -0.3388,-0.26358 -0.32299,-0.43992 0.54623,-0.56878 1.22473,-0.99863 1.80054,-1.53914 0.16696,-0.20605 0.45426,-0.2274 0.57513,-0.46809 0.16332,-0.027 0.2266,-0.22639 0.36448,-0.26925 0.61696,0.49649 1.09482,1.1514 1.69552,1.66122 0.39748,0.0841 0.64506,-0.32227 0.9945,-0.40982 0.14961,-0.15565 0.34815,-0.20346 0.53971,-0.27129 0.11427,-0.18392 0.3512,-0.1887 0.49857,-0.31915 0.11975,-0.22555 -0.14282,-0.35 -0.32778,-0.36652 -0.20826,-0.12187 -0.41611,-0.22899 -0.64585,-0.29708 -0.30531,-0.20101 -0.67727,-0.3092 -0.87974,-0.64409 -0.2636,-0.24858 -0.33934,-0.65248 -0.59906,-0.88664 -0.10463,-0.17684 -0.22843,-0.38048 -0.46535,-0.41258 -0.53777,-0.17024 -1.12673,-0.0489 -1.65978,-0.21696 -0.42463,-0.27392 -0.32222,-0.83578 -0.56885,-1.22393 -0.0433,-0.25367 -0.0827,-0.50889 -0.23351,-0.72513 -0.11572,-0.27792 -0.0279,-0.74569 -0.42913,-0.80596 -1.31628,-0.22298 -2.65152,-0.32165 -3.98723,-0.30448 -0.61981,-0.0322 -1.26222,0.0402 -1.86883,-0.0781 -0.18222,-0.18837 -0.20672,-0.48475 -0.36208,-0.69778 -0.05,-0.26716 -0.0643,-0.54964 -0.25102,-0.76819 -0.075,-0.25536 -0.15895,-0.52686 -0.21241,-0.78893 0.13658,-0.32928 0.12647,-0.70966 0.33462,-1.00793 0.0836,-0.28505 0.0674,-0.59083 0.28521,-0.81424 0.0862,-0.32723 0.10714,-0.80859 -0.29949,-0.92711 -0.45096,-0.33424 -1.17356,-0.46318 -1.29313,-1.10003 -0.32075,-1.51733 -0.0751,-3.11978 -0.38523,-4.64495 -0.0776,-1.00036 -0.0565,-2.00796 -0.10482,-3.00761 -0.57197,-0.57039 -1.17414,-1.15379 -1.69696,-1.75237 -0.19831,-0.0172 -0.22208,-0.31181 -0.39649,-0.40322 -0.24774,-0.28691 -0.71523,-0.0828 -1.05596,-0.15982 -2.15167,-0.0205 -4.29601,-0.27964 -6.44802,-0.24856 -0.32996,0.0711 -0.46016,-0.27284 -0.72657,-0.3634 -0.52258,-0.3378 -0.98865,-0.77251 -1.50625,-1.10316 -0.0793,-0.15677 -0.30844,-0.13399 -0.36869,-0.32742 -0.0984,-0.10651 -0.23314,-0.0994 -0.29827,-0.23196 -0.33433,-0.12905 -0.55934,-0.43362 -0.87721,-0.58024 -0.2173,-0.054 -0.28132,0.21898 -0.49605,0.19609 -0.29345,0.037 -0.4966,0.29677 -0.80044,0.2912 -0.25788,0.14023 -0.51701,0.27135 -0.80273,0.34997 -0.2295,0.1797 -0.52495,0.21199 -0.79301,0.29121 -0.19932,-0.147 -0.47778,-0.11105 -0.6618,-0.30092 -0.24244,-0.0771 -0.45556,-0.20119 -0.66264,-0.34205 -0.27509,-3.2e-4 -0.42731,-0.28932 -0.70509,-0.28401 -0.22905,-0.17587 -0.5151,-0.25254 -0.76291,-0.39135 -0.0963,-0.14592 -0.34521,-0.11615 -0.4807,-0.24011 -0.44874,-0.31877 -1.02981,-0.0865 -1.54166,-0.14099 -0.32758,0.006 -0.65515,0.0124 -0.98273,0.0187 z m 17.60727,15.50062 c 0.38862,-0.0752 0.44413,0.53649 0.16456,0.68375 -0.10671,0.17665 -0.14627,0.39217 -0.33354,0.52303 -0.24052,0.20611 -0.11337,0.54797 0.13181,0.67643 0.0892,0.28477 0.17185,0.5735 0.33114,0.82995 0.0312,0.21359 0.0618,0.43048 0.22223,0.5902 0.0811,0.27178 0.1431,0.54788 0.30572,0.78522 0.0764,0.35923 0.29103,0.66465 0.36184,1.02292 0.194,0.28899 0.21966,0.64127 0.4007,0.93873 0.067,0.2047 0.0738,0.44729 0.24311,0.59524 0.0748,0.2257 0.1184,0.48124 0.17895,0.69898 -0.22435,0.21887 -0.63304,0.27168 -0.91535,0.16347 -0.30672,-0.24765 -0.27101,-0.68277 -0.50444,-0.96776 -0.0816,-0.3398 -0.15936,-0.71024 -0.447,-0.94376 -0.62946,0.0142 -1.27841,-0.0277 -1.89617,0.0203 -0.0455,0.34935 -0.34571,0.60207 -0.33066,0.96656 -0.10492,0.23029 -0.24036,0.44796 -0.27165,0.70761 -0.12573,0.25736 -0.54243,0.34927 -0.76831,0.19166 -0.18409,-0.29928 0.22486,-0.51778 0.21541,-0.81868 0.0949,-0.26425 0.24338,-0.50134 0.32058,-0.77346 0.20403,-0.21505 0.18782,-0.54022 0.35633,-0.78329 0.0728,-0.26463 0.19223,-0.49851 0.32178,-0.7376 0.004,-0.32342 0.30971,-0.52472 0.32851,-0.84926 0.10796,-0.24765 0.25371,-0.47398 0.28076,-0.74839 0.14392,-0.20763 0.24602,-0.44086 0.21949,-0.7003 0.0412,-0.30622 0.4569,-0.47783 0.3225,-0.82048 0.068,-0.26989 0.21498,-0.51994 0.23855,-0.80668 0.0689,-0.23234 0.26504,-0.44857 0.52315,-0.44436 z m -11.53749,1.61384 c 0.37866,0.14335 0.45478,0.59367 0.58229,0.92817 0.18091,0.20947 0.15027,0.5225 0.32442,0.74072 0.0853,0.31945 0.20498,0.62771 0.34109,0.92182 0.0189,0.32566 0.31718,0.52886 0.30344,0.86413 0.0731,0.24979 0.27214,0.4394 0.28173,0.71685 0.0828,0.27257 0.29197,0.49144 0.29696,0.7869 0.16369,0.23673 0.32057,0.57826 0.19129,0.85405 -0.29406,0.14953 -0.74967,0.28195 -0.95708,-0.0637 -0.21366,-0.27447 -0.23321,-0.64405 -0.41917,-0.93322 -0.053,-0.30069 -0.21247,-0.58109 -0.36904,-0.83318 -0.63211,0.0106 -1.27649,-0.0208 -1.90121,0.0152 -0.20506,0.31626 -0.25875,0.69273 -0.41245,1.024 -0.21387,0.24322 -0.0856,0.6621 -0.41354,0.83103 -0.21277,0.15247 -0.46637,0.15746 -0.68854,0.0375 -0.36813,0.0898 -0.82632,0.30702 -1.15594,-0.005 -0.25923,-0.14593 -0.36718,-0.41205 -0.39578,-0.69095 -0.19902,-0.29282 -0.23911,-0.64419 -0.31807,-0.98142 -0.15163,-0.19255 -0.17034,-0.45357 -0.32502,-0.63878 -0.3322,-0.12095 -0.68965,-0.25225 -1.04236,-0.27848 -0.1299,0.7839 0.0409,1.62054 -0.13648,2.40769 -0.11571,0.27702 -0.51495,0.17202 -0.74827,0.24238 -0.35769,0.0707 -0.30964,-0.41812 -0.32323,-0.63493 -0.0225,-1.43352 0.11018,-2.87351 -0.0108,-4.30338 0.0157,-0.33966 -0.6229,-0.33267 -0.49389,-0.67895 0.704,-0.19971 1.46535,-0.15025 2.19396,-0.17379 0.43789,0.0424 0.94893,-0.0373 1.33356,0.21229 0.3594,0.16999 0.65851,0.48981 0.75931,0.88272 0.0551,0.37874 0.0251,0.78296 -0.23519,1.08661 -0.11102,0.35672 -0.57586,0.45367 -0.6997,0.76866 0.2652,0.0238 0.39791,0.24844 0.53251,0.43548 0.22514,0.21276 0.13442,0.59177 0.34601,0.82731 0.13722,0.38828 0.1726,0.88934 0.53287,1.14706 0.32126,0.0891 0.54161,-0.27929 0.53347,-0.55938 0.0802,-0.17683 0.25429,-0.31307 0.23543,-0.52843 0.12914,-0.30114 0.3054,-0.58154 0.376,-0.90922 0.1935,-0.25231 0.18132,-0.59636 0.38643,-0.84003 0.076,-0.37944 0.30545,-0.69427 0.40921,-1.0685 0.1934,-0.18797 0.17589,-0.51174 0.34338,-0.73208 0.11118,-0.26796 0.005,-0.67727 0.35333,-0.79829 0.1196,-0.0505 0.25669,-0.0783 0.38907,-0.0794 z m -10.57237,0.005 c 0.39435,0.11623 0.46265,0.5699 0.57976,0.90395 0.19567,0.2196 0.15463,0.55396 0.35249,0.77466 0.0898,0.41146 0.30956,0.77489 0.41426,1.18136 0.20791,0.24083 0.14513,0.60929 0.37287,0.83666 0.0739,0.25172 0.11723,0.51962 0.29768,0.72153 0.0565,0.23395 -0.009,0.52791 0.24059,0.66828 0.0928,0.23491 0.13066,0.53661 0.0541,0.7641 -0.3107,0.0627 -0.74377,0.25146 -0.94545,-0.1053 -0.20146,-0.28753 -0.2265,-0.65422 -0.41125,-0.95324 -0.0452,-0.27403 -0.16819,-0.55994 -0.35009,-0.76507 -0.62487,-0.10349 -1.28433,-0.0355 -1.91093,-0.0347 -0.20985,0.30313 -0.28763,0.65939 -0.38786,1.00002 -0.26099,0.20525 -0.14909,0.59198 -0.35021,0.82012 -0.18538,0.12956 -0.68455,0.31332 -0.69767,-0.0799 0.0373,-0.2918 0.23167,-0.54005 0.29085,-0.82887 0.21233,-0.2116 0.15284,-0.54093 0.3658,-0.7454 0.11332,-0.22567 0.0926,-0.50848 0.28592,-0.69046 0.0816,-0.24932 0.1448,-0.49765 0.30656,-0.70606 0.0251,-0.25783 0.14369,-0.47835 0.26757,-0.70174 0.0216,-0.23208 0.1585,-0.40944 0.25726,-0.60279 0.10135,-0.38791 0.33765,-0.74416 0.3261,-1.16241 0.0764,-0.26242 0.42019,-0.27448 0.64166,-0.2948 z m 14.25737,0.01 c 0.51419,0.22376 0.78007,0.78763 1.10928,1.21278 0.14568,0.0772 0.17107,0.23638 0.25438,0.34793 0.34209,0.2511 0.41238,0.72559 0.76564,0.97592 0.27953,0.30356 0.46098,0.68334 0.74554,0.99065 0.16956,0.1234 0.23089,0.43557 0.44016,0.4855 0.28459,-0.20889 0.0841,-0.64085 0.1155,-0.93334 -0.0206,-0.89713 -0.11466,-1.80523 -0.0167,-2.69733 0.11162,-0.29934 0.51587,-0.0977 0.74455,-0.13865 -0.007,1.8087 -0.014,3.6174 -0.021,5.42609 -0.22207,0.27486 -0.74304,0.41127 -0.92757,0.0214 -0.54489,-0.6568 -1.0015,-1.37752 -1.5572,-2.02502 -0.14736,-0.16291 -0.17791,-0.39564 -0.38922,-0.49673 -0.0873,-0.28826 -0.39385,-0.44365 -0.52784,-0.71901 -0.0977,-0.20271 -0.24689,-0.47567 -0.46775,-0.52916 -0.0575,1.27929 0.0642,2.58164 -0.0605,3.85927 -0.16997,0.29963 -0.83327,0.15005 -0.75055,-0.23771 0.0718,-1.53206 0.1051,-3.07233 0.12905,-4.60622 -0.0888,-0.20812 -0.49455,-0.48988 -0.22236,-0.71805 0.17357,-0.14719 0.4196,-0.20424 0.6365,-0.21828 z m -19.04529,0.14332 c 0.77327,0.002 1.73389,-0.044 2.22515,0.68111 0.29388,0.40652 0.53371,0.98136 0.20856,1.42866 -0.17272,0.58589 -0.74439,0.97463 -1.28761,1.19455 -0.37614,0.0323 -0.74674,0.16973 -1.11888,0.1889 -0.18867,-0.12522 -0.18957,-0.5172 0.11166,-0.46787 0.24527,-0.0318 0.50995,-0.0489 0.67404,-0.24994 0.41161,-0.1733 0.55354,-0.67303 0.60327,-1.07534 -0.0838,-0.22675 -0.15646,-0.44971 -0.22632,-0.67835 -0.34045,-0.4236 -0.95233,-0.65795 -1.47412,-0.5475 -0.0261,1.71179 0.0559,3.43696 -0.0535,5.14089 -0.14124,0.20394 -0.48476,0.13635 -0.71181,0.1378 -0.24566,-0.0139 -0.43276,-0.18386 -0.34853,-0.44688 -0.0183,-1.54606 0.0391,-3.09918 -0.0523,-4.64112 -0.12439,-0.16721 -0.60306,-0.19543 -0.47519,-0.48093 0.28285,-0.18801 0.68043,-0.10338 1.00494,-0.16072 0.30721,-0.015 0.61276,-0.0222 0.92062,-0.0232 z"
       id="path11-7" /><path
       style="fill:#a02c2c;fill-opacity:1;stroke-width:0.178079;filter:url(#filter52)"
       d="m -183.68677,385.2726 c 0.2334,0.31832 0.35381,0.79575 0.18674,1.16193 -0.32165,0.019 -0.44614,-0.3557 -0.62018,-0.5589 -0.31426,-0.16628 -0.73274,-0.16029 -1.06419,-0.05 -0.52307,0.28276 -0.31915,1.13666 0.25451,1.20283 0.25387,0.0538 0.42675,0.28196 0.70222,0.28328 0.22243,0.0816 0.4181,0.22091 0.6107,0.34842 0.405,0.38401 0.64602,1.0175 0.30072,1.52109 -0.11161,0.40348 -0.55041,0.57106 -0.87221,0.77182 -0.61285,0.0807 -1.25162,0.11339 -1.86103,0.003 -0.37402,-0.11751 -0.27096,-0.62547 -0.29408,-0.91799 0.01,-0.11669 0.0151,-0.45239 0.1943,-0.3917 0.17215,0.16668 0.18047,0.43643 0.39084,0.58502 0.17571,0.28492 0.60203,0.21394 0.89016,0.24494 0.27524,-0.007 0.61211,-0.0482 0.73462,-0.32888 0.2914,-0.16445 0.0747,-0.62625 -0.16945,-0.74193 -0.23973,-0.26839 -0.63086,-0.24083 -0.89461,-0.46545 -0.60057,-0.15123 -1.25808,-0.64841 -1.16233,-1.33883 -0.0307,-0.31369 0.0158,-0.63977 0.28393,-0.8417 0.0882,-0.19193 0.34202,-0.25752 0.44436,-0.4049 -0.44905,-0.12775 -0.96253,-0.0442 -1.43357,-0.0806 -5.36987,-0.0221 -10.74025,-0.0548 -16.11,-0.0132 -0.3047,0.008 -0.63255,-0.0133 -0.88118,0.18778 -0.40976,0.0945 -0.77945,0.30398 -1.20007,0.35896 -0.39806,0.19797 -0.27376,0.75731 -0.34983,1.11842 -0.0503,0.7007 -0.26308,1.37895 -0.2538,2.08792 -0.004,0.2941 -0.0623,0.72735 -0.43825,0.74323 -0.22395,0.11741 -0.43481,0.25361 -0.69874,0.27981 -0.21445,0.0907 -0.39864,0.23776 -0.62054,0.31063 -0.13007,0.18983 -0.10008,0.45669 -0.27189,0.62966 -0.0703,0.25728 -0.12139,0.52787 -0.31147,0.72609 -0.0539,0.23299 -0.0649,0.48018 -0.22356,0.67679 -0.0833,0.24079 -0.11761,0.49695 -0.28413,0.69574 -0.0454,0.32258 -0.242,0.58825 -0.3327,0.89064 -0.12925,0.48544 -0.40225,0.97026 -0.87372,1.19947 -0.25029,0.15775 -0.46787,0.35429 -0.73041,0.48297 -0.18102,0.19681 -0.45244,0.23168 -0.62881,0.43429 -0.20592,0.0367 -0.28017,0.28316 -0.51009,0.29983 -0.14507,0.0682 -0.19676,0.22273 -0.36568,0.26566 -0.25631,0.22713 -0.60088,0.28753 -0.82927,0.55433 -0.44064,0.28509 -0.87563,0.59826 -1.32056,0.85658 0.0111,0.12089 -0.23307,0.17281 -0.14032,0.26038 1.43355,0.0776 2.86802,-0.15129 4.30366,-0.13581 0.93444,0.0116 1.88243,-0.0879 2.80895,0.0293 0.21716,0.16544 0.49976,0.21042 0.6979,0.4043 0.16621,0.0689 0.38137,0.0345 0.47615,0.22452 0.18048,0.12611 0.44968,0.0807 0.57928,0.27837 0.22388,0.0805 0.45247,0.1493 0.63254,0.31351 0.18676,0.0272 0.34415,0.11202 0.48873,0.22943 0.30455,0.13953 0.62195,0.0105 0.87972,-0.15423 0.36392,-0.0713 0.6609,-0.29859 1.02425,-0.3688 0.17628,-0.17963 0.42908,-0.19967 0.65616,-0.28905 0.27554,-0.23277 0.68469,-0.25321 1.01297,-0.14884 0.24386,0.2615 0.60074,0.37829 0.84086,0.65317 0.21939,0.12617 0.38225,0.32794 0.61755,0.42277 0.16721,0.18932 0.40077,0.26619 0.55182,0.46619 0.1973,0.0494 0.26499,0.28824 0.48202,0.33522 0.24873,0.10818 0.4024,0.35174 0.61994,0.48513 0.15551,0.0542 0.24554,0.24988 0.44388,0.24263 0.95328,0.11538 1.91911,0.0547 2.87541,0.15799 1.59106,0.0776 3.18426,0.0902 4.77667,0.12302 0.97008,1.05029 2.04435,2.01219 2.93817,3.12778 0.22367,0.6674 0.11178,1.40298 0.1771,2.09696 0.0107,0.77476 0.0657,1.55098 0.20945,2.31004 0.0858,1.06513 0.0637,2.13796 0.11525,3.20262 0.15592,0.22347 0.39608,0.32507 0.62498,0.43321 0.28592,0.30098 0.74392,0.36573 1.00458,0.68303 0.17774,0.0142 0.39947,0.0726 0.41125,0.29168 0.0823,0.31626 -0.0344,0.61161 -0.18349,0.88236 -0.0643,0.27902 -0.10354,0.56497 -0.26494,0.8068 -0.0596,0.48921 -0.40217,0.89754 -0.35174,1.40791 0.0243,0.31764 0.0295,0.83128 0.46004,0.84663 1.09106,0.0592 2.18892,0.0238 3.27134,0.20497 0.84042,0.129 1.70562,0.004 2.53698,0.17378 0.16174,0.16313 0.21002,0.42194 0.33846,0.61707 0.0554,0.2637 0.0491,0.5499 0.23483,0.7677 0.0972,0.25368 0.0113,0.56947 0.23208,0.78006 0.18356,0.20019 0.01,0.67005 0.38019,0.66467 0.34007,0.0169 0.66145,0.10186 0.97699,0.21457 0.25784,0.0898 0.64621,-0.0276 0.83067,0.2106 0.17415,0.41794 0.475,0.77315 0.68351,1.16997 0.18027,0.12561 0.20791,0.43169 0.46486,0.48873 0.28609,0.0997 0.55584,0.44018 0.87721,0.34601 0.0443,-0.30375 0.002,-0.70725 0.33785,-0.87348 0.43585,-0.24565 0.75279,-0.66145 1.20571,-0.86113 0.0854,-0.17144 0.37483,-0.14703 0.42397,-0.35645 0.28247,-0.21703 0.61369,-0.37706 0.86101,-0.63062 0.29647,-0.14566 0.50139,-0.43994 0.80932,-0.57796 0.11767,-0.17229 0.34746,-0.16769 0.45647,-0.35621 0.52616,-0.37786 1.04525,-0.7728 1.57571,-1.14382 0.17938,-0.0362 0.21534,-0.27648 0.41065,-0.28748 0.30761,-0.39319 0.81924,-0.56994 1.17788,-0.91882 0.25279,-0.16555 0.53045,-0.27258 0.72813,-0.52028 0.21247,-0.20904 0.4452,-0.39231 0.71601,-0.50457 0.3447,-0.34557 0.76074,-0.60075 1.15941,-0.86533 0.31288,-0.33179 0.72479,-0.60311 1.19767,-0.5884 1.13026,-0.11101 2.33957,0.0964 3.40363,-0.38883 0.58919,-0.4251 1.2929,-0.70285 1.8849,-1.12966 0.14662,-0.11645 0.35996,-0.11111 0.47926,-0.28125 0.23937,-0.0793 0.43058,-0.23951 0.64548,-0.35705 0.24027,-0.0347 0.36603,-0.28667 0.60232,-0.34769 0.37483,-0.36186 0.89539,-0.11288 1.30261,0.0427 0.48837,0.039 0.9055,0.36956 1.40912,0.30332 0.34484,0.10868 0.49175,-0.1083 0.55362,-0.41306 0.14765,-0.44369 0.14452,-0.92556 0.35248,-1.34795 0.0168,-0.46523 0.57575,-0.62804 0.95997,-0.65172 0.31727,-0.23897 0.74574,-0.20209 1.07952,-0.40718 0.3227,-0.0716 0.64704,-0.1299 0.94161,-0.28101 0.31646,-0.051 0.63734,-0.0912 0.91631,-0.25558 0.32094,-0.0527 0.63887,-0.13499 0.92409,-0.29708 0.16626,-0.0645 0.56516,0.0386 0.49785,-0.2551 -0.16855,-0.48081 -0.24995,-0.98141 -0.22048,-1.49259 0.0245,-1.03095 -0.0557,-2.07069 0.0558,-3.09576 0.07,-0.36259 0.54897,-0.19089 0.79625,-0.32694 0.6537,-0.19947 1.37001,-0.11125 2.02102,-0.3309 0.62392,-0.10337 1.27329,-0.0629 1.87062,-0.29217 0.34525,-0.0842 0.73103,-0.0429 1.06467,-0.12712 -0.007,-0.2835 0.0175,-0.59253 0.19237,-0.81472 -0.23652,-0.16125 -0.59744,-0.0733 -0.8754,-0.12992 -0.67675,-0.0692 -1.38681,-0.0707 -2.0263,-0.32176 -0.57373,-0.40927 -1.00407,-0.98438 -1.48048,-1.49234 -0.17933,-0.23185 -0.37531,-0.65815 -0.74947,-0.524 -0.27928,0.0936 -0.52443,0.26276 -0.82563,0.302 -0.31757,0.21048 -0.72068,0.21372 -1.03156,0.43764 -0.28707,0.005 -0.52401,0.15369 -0.77586,0.26913 -0.26981,0.0346 -0.5019,0.15935 -0.72824,0.2936 -0.34132,-0.007 -0.58053,0.27541 -0.91259,0.30044 -0.29323,0.17695 -0.64915,0.20049 -0.93669,0.37456 -0.22586,0.14643 -0.53933,0.10277 -0.74419,0.29264 -0.31163,0.15148 -0.52005,-0.17488 -0.81292,-0.19778 -0.21427,-0.11404 -0.4139,-0.24917 -0.66288,-0.28928 -0.065,-0.0962 -0.20555,-0.13928 -0.21972,0.0257 -0.0378,0.24844 -0.049,0.51331 -0.23208,0.70102 -0.10185,0.35786 -0.0975,0.83723 -0.51716,0.99198 -0.68689,0.27288 -1.45756,0.15223 -2.16074,0.35945 -0.58927,0.0618 -1.19904,0.19502 -1.78367,0.1312 -0.862,-0.62196 -1.57567,-1.437 -2.35432,-2.16122 5.3e-4,-0.73636 0.11566,-1.4864 0.0169,-2.21676 -0.35886,-0.21878 -0.83944,-0.0715 -1.22237,-0.21696 -0.12922,-0.51993 -0.15802,-1.08301 -0.2719,-1.616 -0.0742,-0.92065 -0.11859,-1.84809 -0.27213,-2.7603 -0.0466,-0.66004 -0.13726,-1.3326 -0.0819,-1.98888 0.71408,-0.89176 1.62424,-1.61763 2.34077,-2.50088 -0.0911,-0.26335 -0.22381,-0.52432 -0.30488,-0.78546 -1.5961,-0.0965 -3.19592,-0.0798 -4.79415,-0.0921 -0.32753,-0.30965 -0.38627,-0.75052 -0.43381,-1.17272 -0.0998,-0.26283 -0.2497,-0.50824 -0.24095,-0.80524 -0.0957,-0.4026 -0.27923,-0.77113 -0.31483,-1.19036 -0.13845,-0.34448 -0.39232,-1.238 -0.45839,-1.59082 -2.82202,0.0204 -5.46244,0.47566 -8.28282,0.57296 -0.14489,0.0909 0.14254,0.12683 0.21337,0.15675 0.24202,0.12046 0.4525,0.30092 0.58672,0.52735 0.21065,0.12431 0.17196,0.4106 0.35117,0.57149 0.10342,0.63213 0.0548,1.29001 0.0291,1.9282 -0.046,0.1853 -0.23075,0.30521 -0.24203,0.50804 -0.24498,0.37239 -0.57432,0.71348 -1.00278,0.85646 -0.39907,0.28394 -0.94049,0.10453 -1.3976,0.15857 -0.45473,0.0425 -0.9196,-0.12933 -1.22261,-0.45421 -0.17886,-0.0338 -0.18481,-0.29861 -0.37084,-0.35729 -0.091,-0.27405 -0.33492,-0.50401 -0.31231,-0.8128 0.0187,-0.59622 -0.0843,-1.22272 0.0631,-1.80298 0.20674,-0.21623 0.24467,-0.52751 0.49857,-0.70809 0.20347,-0.25786 0.47446,-0.4333 0.80044,-0.47962 0.11172,-0.13577 -0.24499,-0.10576 -0.31113,-0.1207 -1.03201,-0.0403 -2.06534,-0.0147 -3.0979,-0.0221 -0.0586,0.35932 0.29439,0.64165 0.29744,1.01105 0.0603,0.23906 0.292,0.40393 0.2545,0.67307 0.092,0.29202 0.29126,0.53692 0.3441,0.8465 0.18074,0.28664 0.23367,0.63746 0.43728,0.90755 0.0587,0.41587 0.4421,0.84907 0.19381,1.27167 -0.20739,0.0901 -0.55646,0.16081 -0.72596,-0.0217 -0.0649,-0.23264 -0.13663,-0.46412 -0.29408,-0.65065 -0.0477,-0.23302 -0.0283,-0.51616 -0.24887,-0.68711 -0.0496,-0.17593 -0.16664,-0.32019 -0.37455,-0.26097 -0.44832,0.0578 -0.94094,-0.0268 -1.36246,0.15339 -0.14243,0.21921 -0.0896,0.53485 -0.28473,0.73916 -0.11427,0.26088 -0.0836,0.67097 -0.43608,0.75415 -0.13347,0.0351 -0.46055,-0.0457 -0.37036,-0.22164 0.16478,-0.22575 0.10227,-0.56736 0.31675,-0.77658 0.0933,-0.35526 0.30295,-0.66715 0.37707,-1.02496 0.23646,-0.22921 0.18376,-0.60593 0.41438,-0.83439 0.0788,-0.24877 0.12329,-0.51064 0.30139,-0.71097 0.0425,-0.38064 0.34593,-0.69273 0.28106,-1.095 -0.24118,-0.16912 -0.73359,-0.0244 -1.07035,-0.0726 -0.40982,0.0277 -0.89167,-0.0551 -1.26075,0.0404 z m -1.33775,6.47528 c 0.24291,-0.0159 0.35367,0.21043 0.44112,0.38871 0.19196,0.24836 0.12185,0.62797 0.36328,0.85682 0.059,0.22731 0.10085,0.4625 0.25426,0.65664 0.076,0.29691 0.18856,0.57303 0.32587,0.84506 0.0386,0.31175 0.2852,0.52968 0.30451,0.84278 0.15746,0.36231 0.34476,0.79419 0.22428,1.18424 -0.33817,0.20461 -0.94559,0.005 -0.88704,-0.45779 -0.004,-0.22788 -0.28425,-0.31713 -0.2623,-0.56094 -0.0716,-0.24748 -0.17491,-0.59497 -0.40763,-0.69448 -0.39672,0.0181 -0.79911,0.0127 -1.19254,0.0446 -0.2915,0.23857 -0.42592,0.58516 -0.47734,0.94568 -0.13449,0.19624 -0.19914,0.42071 -0.26757,0.64825 -0.1028,0.28189 -0.63136,0.26499 -0.57209,-0.0814 -0.026,-0.27755 0.0819,-0.52569 0.24418,-0.74144 0.17284,-0.5572 0.48482,-1.06274 0.66036,-1.61816 0.23367,-0.20097 0.14459,-0.54375 0.35118,-0.75931 0.0855,-0.27665 0.19391,-0.53437 0.31746,-0.79409 0.11714,-0.26147 -0.0475,-0.73396 0.37468,-0.68075 0.0688,-0.0121 0.13974,-0.0239 0.20533,-0.0243 z m -3.90064,0.0429 c 0.5345,0.0203 1.09623,-0.043 1.56071,0.26566 0.38944,0.22339 0.62924,0.66775 0.55178,1.12307 0.0694,0.5315 -0.38545,0.94748 -0.80292,1.19119 -0.23789,0.24196 -0.6359,0.083 -0.92686,0.22548 -0.23563,0.0582 -0.57999,0.1271 -0.52772,0.44927 -0.0742,0.49715 0.10727,1.09193 -0.2094,1.51958 -0.24166,0.0516 -0.69132,0.10774 -0.68675,-0.26566 -0.10911,-1.28253 -0.006,-2.58276 -0.0596,-3.86418 -0.26115,-0.056 -0.41327,-0.4418 -0.12461,-0.56513 0.39828,-0.0951 0.81847,-0.0683 1.22537,-0.0793 z m 17.16723,0.003 c 0.45266,-0.0229 0.88774,0.22868 1.2111,0.51164 0.15702,0.0503 0.13992,0.25117 0.3008,0.31099 0.2802,0.35404 0.41643,0.79359 0.37823,1.24383 -0.0426,0.43981 0.10292,0.93756 -0.11018,1.34209 -0.16328,0.26849 -0.25211,0.58311 -0.52339,0.77669 -0.23724,0.31669 -0.63698,0.37975 -0.95336,0.56814 -0.54625,0.10202 -1.16237,0.18541 -1.68245,-0.0419 -0.21166,-0.12852 -0.47113,-0.17455 -0.61539,-0.39291 -0.34462,-0.18113 -0.53691,-0.58978 -0.67115,-0.94365 -0.13263,-0.67617 -0.14743,-1.4172 0.0693,-2.06959 0.1882,-0.32305 0.35666,-0.70536 0.71277,-0.87469 0.16845,-0.19787 0.4411,-0.20211 0.63734,-0.3592 0.40833,-0.0799 0.83224,-0.0555 1.24636,-0.0715 z m -10.16196,0.004 c 0.17472,-0.0287 0.40298,0.0273 0.35189,0.25438 0.0758,1.16163 0.0329,2.3331 0.0768,3.49334 0.26191,0.27751 0.60481,0.50217 1.00433,0.41821 0.30333,-0.0179 0.59989,-0.14177 0.8507,-0.29672 v -3.50821 c 0.15997,-0.28581 0.61591,-0.51627 0.85526,-0.19537 0.20494,0.40429 0.075,0.90106 0.12956,1.33892 0.0115,0.96168 0.004,1.92346 0.006,2.88518 -0.13489,0.29226 -0.47322,0.53698 -0.78306,0.34325 -0.21468,-0.31171 -0.66569,-0.18566 -0.92506,-0.003 -0.57358,0.1703 -1.30716,0.17799 -1.74121,-0.28881 -0.12213,-0.23366 -0.40796,-0.37321 -0.30488,-0.68147 -0.0178,-1.04349 0.0354,-2.11636 -0.0265,-3.14157 -0.23662,0.0821 -0.63059,-0.18783 -0.37875,-0.42361 0.19712,-0.2622 0.60713,-0.14775 0.88488,-0.19453 z m 4.74486,0.0333 c 0.19888,-0.0444 0.41354,0.0692 0.39027,0.2942 0.0948,1.3001 -0.009,2.63395 0.0704,3.91659 0.42754,-0.0617 0.90686,0.0595 1.30669,-0.12485 0.21544,-0.20168 0.35055,-0.53943 0.6215,-0.66072 0.25155,0.21033 0.10839,0.60964 0.0301,0.88104 -0.11069,0.24904 -0.25085,0.55861 -0.57724,0.45394 -0.72231,-0.0239 -1.47053,0.05 -2.1779,-0.0692 -0.14881,-0.98273 -0.0655,-1.99413 -0.11242,-2.98783 -0.0221,-0.37949 0.02,-0.78381 -0.0397,-1.14872 -0.23752,0.0324 -0.5227,-0.0938 -0.41714,-0.36976 0.17708,-0.2749 0.63777,-0.13647 0.90539,-0.1847 z"
       id="path12-2"
       sodipodi:nodetypes="cccccccccccccccccccccccccccccccccccccccccccccccccccccccccccccccccccccccccccccccccccccccccccccccccccccccccccccccccccccccccccccccccccccccccccccccccccccccccccccccccccccccccccccccccccccccccccccccccccccccccccccccscccccccccsscccccccccccccccsccccccccccccccsssccccccccccss" /><path
       style="fill:#a02c2c;fill-opacity:1;stroke-width:0.178079;filter:url(#filter53)"
       d="m -218.05818,441.63227 c -0.78317,-0.0158 -1.52316,0.27761 -2.30592,0.26455 -0.75433,0.067 -1.49041,0.24993 -2.25052,0.26748 -0.67604,0.11093 -1.34722,0.22212 -2.03326,0.26373 -0.2441,0.0195 -0.40418,0.23251 -0.64705,0.25546 -0.30492,0.20709 -0.6656,0.29788 -0.97399,0.49785 -0.29911,0.006 -0.46428,0.31043 -0.76506,0.33162 -0.21611,0.14118 -0.44668,0.2346 -0.67607,0.34314 -0.2189,0.15688 -0.49385,0.19297 -0.70714,0.3676 -0.29772,0.0608 -0.52222,0.30001 -0.82887,0.35045 -0.23644,0.19998 -0.56057,0.23386 -0.79997,0.43488 -0.19951,0.031 -0.37303,0.11469 -0.53035,0.24191 -0.26314,0.0543 -0.47023,0.21961 -0.70102,0.33917 -0.3327,0.0307 -0.59917,0.34384 -0.7262,0.6311 -0.0423,0.50953 -0.32361,0.97435 -0.33594,1.47748 -0.14047,0.30175 -0.30644,0.64307 -0.63218,0.78257 -0.32156,0.15115 -0.59785,0.4098 -0.93993,0.53875 -0.18285,0.12236 -0.33517,0.26386 -0.5421,0.33966 -0.20596,0.17247 -0.47722,0.22394 -0.66372,0.43104 -0.23726,0.0815 -0.42421,0.26087 -0.65508,0.35249 -0.40808,0.36681 -0.97255,0.51574 -1.39005,0.86281 -0.0993,0.17649 -0.38419,0.0815 -0.48046,0.28521 -0.25763,0.14178 -0.51483,0.2837 -0.75547,0.46079 -0.39628,0.16897 -0.69674,0.47433 -1.09617,0.64013 -0.21509,0.13211 -0.39049,0.31703 -0.63641,0.38327 -0.16335,0.20066 -0.44495,0.20919 -0.61202,0.38739 -0.2833,0.0415 -0.39399,0.32469 -0.65629,0.3977 -0.18448,0.1092 -0.18696,0.36416 -0.361,0.49821 -0.10377,0.25223 -0.33754,0.41842 -0.42085,0.68555 -0.20885,0.23207 -0.39649,0.48406 -0.51236,0.76962 -0.30858,0.25382 -0.37314,0.68031 -0.67404,0.94953 -0.11288,0.39389 -0.48852,0.64519 -0.63289,1.021 -0.18664,0.31911 -0.45206,0.58375 -0.59428,0.92038 -0.0993,0.22673 -0.33976,0.35736 -0.42925,0.57401 -0.0308,0.23661 -0.25685,0.38764 -0.33833,0.60687 -0.21622,0.11909 -0.19318,0.42141 -0.39627,0.57353 -0.19377,0.26094 -0.31319,0.59696 -0.55134,0.8038 -0.028,0.20541 -0.2605,0.30121 -0.29264,0.51093 -0.18485,0.22056 -0.28781,0.48348 -0.4873,0.68962 -0.0755,0.25585 -0.30764,0.43001 -0.39986,0.67823 -0.27142,0.24496 -0.35827,0.79333 -0.81628,0.74528 -0.33346,-0.0272 -0.56509,0.27737 -0.90334,0.2545 -0.43068,0.0451 -0.80406,0.28801 -1.24133,0.31099 -0.33223,0.0813 -0.55175,0.42823 -0.65616,0.72992 -0.1276,0.21754 -0.28147,0.42162 -0.37852,0.65977 -0.40999,0.68292 -0.77535,1.39718 -1.17704,2.08662 -0.10056,0.20256 -0.29683,0.34281 -0.31663,0.57965 -0.18951,0.17493 -0.20395,0.45436 -0.358,0.64213 -0.26128,0.13566 0.11562,0.3529 0.19849,0.47842 0.5352,0.50582 1.0174,1.08722 1.62248,1.50902 0.12461,0.0938 0.29631,0.0615 0.30991,-0.1035 0.4102,-0.54287 0.88751,-1.03431 1.31401,-1.5636 0.18266,-0.26244 0.45622,-0.53971 0.80698,-0.41862 0.90408,-0.002 1.77661,0.27773 2.67389,0.30457 0.35682,0.075 0.53191,0.45583 0.85381,0.586 0.14826,0.26781 0.49877,0.30205 0.68471,0.5493 0.61572,0.54173 1.30189,1.00105 1.91668,1.54056 0.1139,0.0274 0.0763,0.23754 0.2491,0.20389 0.54339,0.33518 1.0001,0.80566 1.51118,1.1906 0.25398,0.2075 0.0801,0.59555 0.14416,0.8749 0.0347,1.06199 -0.0186,2.14725 0.0407,3.19437 0.36801,0.011 0.72003,0.11112 1.05075,0.25498 0.17797,0.0266 0.19001,-0.21843 0.36856,-0.20473 0.28688,-0.244 0.60942,-0.44576 0.90551,-0.67284 0.18927,-0.2343 0.45127,-0.36571 0.70006,-0.50756 0.26609,-0.2383 0.60212,-0.58207 0.98742,-0.38403 0.1827,0.0852 0.28654,0.27733 0.49113,0.32658 0.23114,0.11303 0.39342,0.31763 0.59416,0.45395 0.3628,0.27462 0.31969,0.82242 0.38251,1.22874 0.0111,0.4029 -0.005,0.95198 0.45619,1.11635 0.19577,0.13151 0.38978,0.26911 0.59548,0.37264 0.11694,0.21097 0.39084,0.18754 0.52735,0.38511 0.25876,0.0838 0.43234,0.32598 0.69755,0.39578 0.15848,0.1832 0.39442,0.24095 0.56009,0.41882 0.27036,0.0755 0.438,0.3362 0.70906,0.42001 0.24896,0.16074 0.47128,0.34834 0.72596,0.48861 0.16993,0.17728 0.44253,0.20314 0.57161,0.42625 0.23637,0.0375 0.37204,0.26589 0.60447,0.31399 0.20255,0.20033 0.49933,0.26603 0.68831,0.47014 0.2288,0.049 0.29705,0.27749 0.51668,0.33498 0.34392,0.15463 0.57322,0.46386 0.93537,0.57509 0.13194,0.17174 0.3927,0.20458 0.50469,0.40418 0.37936,0.12485 0.67361,0.43608 1.04391,0.59572 0.16125,0.11251 0.28476,0.24851 0.47878,0.30331 0.30131,0.15638 0.5213,0.43006 0.8369,0.54942 0.14502,0.16994 0.37084,0.19762 0.50409,0.38152 0.25692,0.0878 0.43999,0.30318 0.68855,0.39218 0.12649,0.23561 0.46324,0.22748 0.55481,0.50205 0.1892,0.38764 0.4544,0.73319 0.66049,1.10412 0.18175,0.0933 0.0867,0.37524 0.28172,0.48094 0.17302,0.16198 0.20336,0.41196 0.37252,0.58396 0.0559,0.2314 0.29257,0.35674 0.34901,0.5938 0.19455,0.29276 0.39085,0.59072 0.52891,0.90887 0.22306,0.12147 0.16707,0.41991 0.38176,0.55613 0.0399,0.16895 0.1803,0.27068 0.36436,0.25451 0.76568,-0.001 1.50716,0.2245 2.27157,0.28184 0.19297,0.29924 0.57308,0.7317 0.25234,1.08217 -0.90551,0.98845 -1.76279,2.02243 -2.70541,2.9786 -0.369,0.41513 -0.75052,0.84322 -1.09905,1.26458 -0.0742,0.6815 0.22486,1.33585 0.19739,2.02016 0.0423,0.47374 0.0832,0.97251 0.26964,1.40674 0.83876,-0.0309 1.69183,0.0612 2.52307,-0.049 0.0827,-0.088 0.0746,-0.25352 0.2184,-0.305 0.57508,-0.50818 1.15273,-1.02958 1.71459,-1.54428 0.1921,-0.022 0.24083,-0.26288 0.43404,-0.28952 0.13652,-0.22544 0.31504,-0.44385 0.5523,-0.56094 0.10025,-0.27337 0.42265,-0.35448 0.58996,-0.59008 0.7254,-0.67861 1.46137,-1.3581 2.21328,-2.00051 0.21992,-0.11928 0.11073,-0.47496 0.15704,-0.6811 0.0425,-1.14178 -0.10631,-2.29259 0.0184,-3.42799 0.0238,-0.16635 0.22827,-0.11321 0.28352,-0.2617 0.34808,-0.30551 0.783,-0.47611 1.1022,-0.81795 0.20541,-0.11359 0.38448,-0.25615 0.5619,-0.40046 0.16097,-0.0184 0.19576,-0.23563 0.36831,-0.27562 0.26502,-0.19912 0.55893,-0.3607 0.8224,-0.53395 0.0881,-0.23041 0.51207,-0.23531 0.39507,-0.55278 -0.097,-0.37482 -0.0196,-0.81157 -0.19382,-1.15689 -0.16903,-0.0667 -0.4588,-0.0286 -0.44639,-0.29564 -0.0192,-0.80619 -0.0312,-1.6322 0.0981,-2.42916 0.0763,-0.34959 0.27791,-0.64649 0.43584,-0.95444 0.0696,-0.21491 0.227,-0.3993 0.31435,-0.60975 0.20285,-0.16219 0.17209,-0.45049 0.37467,-0.61766 0.0888,-0.17932 0.11841,-0.39744 0.30044,-0.51104 0.073,-0.16385 0.0804,-0.35751 0.23975,-0.47698 0.19765,-0.40302 0.39436,-0.9146 0.84914,-1.08577 0.32422,0.0161 0.54725,-0.2723 0.86365,-0.27646 0.23597,-0.0848 0.42053,-0.26786 0.68255,-0.28843 0.36433,-0.13691 0.78552,-0.29642 0.91702,-0.70187 0.18275,-0.1899 0.15288,-0.4786 0.3694,-0.63781 0.0922,-0.19258 0.14084,-0.4088 0.32383,-0.53707 0.0539,-0.18719 0.11666,-0.36562 0.25845,-0.51032 0.049,-0.24823 0.23736,-0.41676 0.33822,-0.63422 0.0536,-0.22742 0.27632,-0.38854 0.34097,-0.62702 0.36237,-0.63418 0.69933,-1.29316 1.09237,-1.90432 0.15291,-0.14339 0.11844,-0.40281 0.2936,-0.54942 0.0728,-0.24061 0.22566,-0.43051 0.35357,-0.6383 0.0158,-0.23491 0.28071,-0.35133 0.28868,-0.59367 0.19979,-0.2018 0.24337,-0.49206 0.43693,-0.69311 0.0723,-0.18665 0.14968,-0.37047 0.30007,-0.49953 -0.008,-0.26934 0.25864,-0.40266 0.33438,-0.63349 0.0393,-0.21686 0.23955,-0.36875 0.29073,-0.57785 0.31975,-0.182 0.64673,0.0718 0.89135,0.26206 0.18664,0.0311 0.24646,0.30952 0.47542,0.26182 0.23511,0.12302 0.44823,0.31917 0.67643,0.46906 0.25131,0.27524 0.0514,0.69491 0.0254,1.01873 -0.243,0.67533 -0.13895,1.42237 -0.39662,2.09094 -0.10352,0.54877 -0.001,1.13415 -0.26734,1.64011 -0.10557,0.20649 0.0277,0.61608 -0.28532,0.65833 -0.43766,0.0191 -0.85774,0.12238 -1.28042,0.22187 -0.25263,0.0904 -0.69182,-0.0494 -0.83053,0.1619 -0.0791,0.58712 -0.005,1.21098 -0.1876,1.77721 -0.18342,0.27705 -0.54932,0.25523 -0.7737,0.48202 -0.30157,0.0867 -0.58929,0.25224 -0.87289,0.37012 -0.1762,0.4038 -0.0446,0.87834 -0.23075,1.2881 -0.0752,0.37587 -0.31915,0.67106 -0.6311,0.87516 -0.51816,0.51124 -1.07864,0.97584 -1.63387,1.44258 -0.28244,0.27121 -0.59789,0.50146 -0.87661,0.7779 -0.38449,0.34608 -0.7594,0.70014 -1.17072,1.00939 -0.5211,0.51515 -1.1657,0.92945 -1.59018,1.53095 -0.10413,0.28516 0.31134,0.41055 0.27549,0.6955 0.0947,0.17401 0.271,0.29758 0.29241,0.51488 0.14943,0.25799 0.43595,-0.054 0.54797,-0.18494 0.79855,-0.70352 1.55489,-1.45471 2.33922,-2.17694 0.28289,-0.26684 0.59435,-0.52544 0.90994,-0.73412 0.0225,-0.2073 0.2942,-0.15616 0.30932,-0.36628 1.00269,-0.93191 2.01759,-1.88755 3.03741,-2.81385 0.16519,-0.21737 0.43269,-0.30351 0.60189,-0.52753 0.13868,-0.13077 0.35692,-0.20672 0.38955,-0.40215 0.82875,-0.68472 1.55426,-1.49365 2.39318,-2.17118 0.31751,-0.2951 0.64265,-0.60792 0.79804,-1.01596 0.15744,-0.18702 0.15963,-0.44633 0.34961,-0.61323 0.086,-0.19803 0.14297,-0.40878 0.31171,-0.55206 0.0536,-0.17054 0.061,-0.36008 0.2226,-0.47398 0.10108,-0.26516 0.25671,-0.49886 0.37084,-0.75763 0.0382,-0.21396 0.27146,-0.33434 0.27921,-0.56574 0.24326,-0.38415 0.40304,-0.81065 0.64093,-1.20102 0.1576,-0.28554 0.33213,-0.56303 0.44004,-0.86497 0.21283,-0.19377 0.22063,-0.49732 0.41318,-0.7039 0.0676,-0.19863 0.12763,-0.38008 0.26697,-0.53023 0.0919,-0.32826 0.33535,-0.57232 0.43189,-0.89939 0.18104,-0.1541 0.1563,-0.45336 0.34877,-0.60028 0.0604,-0.21432 0.18969,-0.38789 0.30631,-0.56465 0.0396,-0.28903 0.32496,-0.47678 0.34781,-0.7749 0.14528,-0.14301 0.21171,-0.32291 0.25882,-0.51512 0.2135,-0.20498 0.23744,-0.53044 0.44088,-0.73028 0.0553,-0.20978 0.14578,-0.38653 0.27573,-0.54835 0.0666,-0.26266 0.2913,-0.43103 0.33031,-0.70006 0.18769,-0.21968 0.21712,-0.52321 0.42013,-0.72656 0.0709,-0.189 0.15384,-0.36987 0.30031,-0.50337 0.008,-0.31342 0.28944,-0.50858 0.33846,-0.81244 0.0997,-0.15179 0.34305,-0.38038 0.16958,-0.55601 -0.31012,-0.14224 -0.62318,-0.28292 -0.96079,-0.34685 -0.28091,-0.21126 -0.66082,-0.14577 -0.93154,-0.36952 -0.2939,-0.1363 -0.6394,-0.1367 -0.90179,-0.3387 -0.26244,-0.0385 -0.51716,-0.0577 -0.7322,-0.2304 -0.27151,-0.0952 -0.5612,-0.13002 -0.79241,-0.31291 -0.23316,-0.18368 0.0652,-0.51481 0.17451,-0.6889 0.1385,-0.21476 0.2849,-0.4469 0.46618,-0.60771 0.0542,-0.23551 0.26633,-0.40329 0.35717,-0.62066 0.23456,-0.12174 0.27443,-0.40775 0.45899,-0.58744 0.0415,-0.21692 0.2819,-0.28155 0.33282,-0.50397 0.23178,-0.16118 0.26558,-0.49643 0.48821,-0.68741 0.25795,-0.3526 0.5005,-0.72147 0.76427,-1.06304 0.19571,-0.31769 0.43383,-0.63612 0.64441,-0.94509 0.1998,-0.088 0.0241,-0.39749 -0.0384,-0.53464 -0.11141,-0.29934 -0.51806,-0.06 -0.7678,-0.0896 -1.16058,0.24475 -2.3646,0.15276 -3.52213,0.42301 -0.38477,0.0486 -0.84095,0.0814 -1.06998,-0.31704 -1.24227,-1.19057 -2.5381,-2.32117 -3.76087,-3.53324 -1.33617,-1.31956 -2.76216,-2.5386 -4.10034,-3.85625 -0.28422,-0.23797 -0.62786,-0.38712 -0.90179,-0.64753 -0.46235,-0.3785 -0.97138,-0.69258 -1.42758,-1.07821 -0.48658,-0.20308 -0.78875,-0.68074 -1.26436,-0.89424 -0.24201,-0.16822 -0.45967,-0.38733 -0.71553,-0.52051 -0.10626,-0.22987 -0.40503,-0.20207 -0.54642,-0.4049 -0.38952,-0.39012 -0.90898,-0.69514 -1.47976,-0.64154 -0.32225,-0.0347 -0.60335,-0.2247 -0.93938,-0.20799 -0.55918,-0.006 -1.09215,-0.15541 -1.63538,-0.2546 -0.85883,-0.0592 -1.68889,-0.31199 -2.54573,-0.38199 -0.6447,-0.20242 -1.34517,-0.13144 -1.98781,-0.34985 -0.37223,-0.0596 -0.75127,-0.0644 -1.12738,-0.0606 z m 6.40944,15.80657 c 0.40416,0.14583 0.61607,0.59209 0.90599,0.8886 0.15012,0.32153 0.40697,0.58267 0.64069,0.85381 0.28126,0.51423 0.71161,0.9501 1.09872,1.38885 0.18531,0.14653 0.12407,-0.21043 0.12718,-0.30511 0.0194,-0.82898 -0.15715,-1.66972 -0.0427,-2.48997 0.11821,-0.17778 0.44452,-0.14112 0.60147,-0.0282 0.15673,0.54657 -0.008,1.13861 -0.001,1.70188 -0.0833,0.89186 -0.0605,1.81874 -0.27259,2.68378 -0.32336,0.11345 -0.56854,-0.26789 -0.74984,-0.47698 -0.0872,-0.2793 -0.4038,-0.42238 -0.5121,-0.70426 -0.43421,-0.5934 -0.85967,-1.19293 -1.32854,-1.75645 -0.03,-0.11854 -0.19972,-0.28035 -0.22295,-0.07 -0.0855,0.94925 0.0979,1.91452 -0.0314,2.85685 -0.0857,0.25543 -0.58678,0.26686 -0.52388,-0.0762 -0.0965,-1.28531 0.0425,-2.58597 -0.10207,-3.86646 -0.14119,-0.1731 -0.13469,-0.4586 0.10519,-0.54234 0.0958,-0.0446 0.20328,-0.0611 0.30835,-0.0578 z m -2.936,7.9e-4 c 0.33673,0.0848 0.52303,0.41639 0.57796,0.73508 0.15018,0.2506 0.21569,0.53367 0.296,0.80561 0.19613,0.24366 0.21806,0.58287 0.38032,0.85189 0.0851,0.37202 0.32223,0.68393 0.37443,1.06766 0.16759,0.23205 0.19894,0.51582 0.30128,0.77466 0.24933,0.13647 -0.0388,0.40112 -0.21121,0.46343 -0.41514,0.16517 -0.72207,-0.32413 -0.76662,-0.67487 -0.12001,-0.28015 -0.25326,-0.56348 -0.32502,-0.85418 -0.51359,0.0443 -1.09859,-0.14942 -1.57631,0.0975 -0.17187,0.23956 -0.19907,0.56195 -0.35033,0.81975 -0.006,0.31491 -0.27115,0.64865 -0.59883,0.62834 -0.15705,-0.18672 -0.39276,0.0996 -0.5932,0.0449 -0.33073,0.01 -0.73874,-0.15647 -0.79601,-0.5234 -0.22962,-0.31532 -0.20306,-0.71332 -0.32202,-1.06934 -0.18935,-0.1358 -0.1906,-0.50642 -0.50757,-0.46139 -0.18396,0.0154 -0.39369,-0.0831 -0.54126,-0.1071 -0.13314,0.64141 0.0204,1.32627 -0.1498,1.95626 -0.2611,0.36789 -0.9394,0.0977 -0.83307,-0.35105 -0.0116,-1.19283 0.0231,-2.40014 -0.0171,-3.58401 -0.15404,0.0128 -0.42713,-0.22857 -0.20185,-0.33378 0.76346,-0.16447 1.56854,-0.32111 2.32458,-0.0589 0.37536,-0.0398 0.63834,0.2502 0.88104,0.48897 -0.0582,0.40956 0.1546,0.95342 -0.23112,1.25212 -0.0391,0.20248 -0.41934,0.20445 -0.29096,0.46319 0.12118,0.20041 0.3017,0.35999 0.36604,0.5884 0.21156,0.27305 0.16319,0.67056 0.37132,0.95696 0.10167,0.2406 0.36992,0.32801 0.40851,0.61185 0.13487,0.0182 0.0298,-0.335 0.0938,-0.49155 0.0977,-0.21874 0.27817,-0.40283 0.28688,-0.66144 0.0866,-0.24001 0.26303,-0.43619 0.27789,-0.70054 0.22351,-0.31803 0.25789,-0.71545 0.46307,-1.042 0.031,-0.24158 0.18191,-0.4036 0.27681,-0.60783 0.13164,-0.34861 0.17939,-0.78312 0.43608,-1.05722 0.0631,-0.0202 0.13017,-0.0295 0.19634,-0.0279 z m -7.89196,0.002 c 0.36636,0.0414 0.70488,0.22835 1.07558,0.26182 0.30163,0.0526 0.16328,0.46089 0.20005,0.67236 0.0474,0.14586 -0.0755,0.5105 -0.25798,0.33318 -0.14204,-0.14157 -0.0688,-0.43377 -0.32706,-0.44028 -0.36737,-0.33408 -0.90225,-0.24556 -1.35467,-0.20761 -0.40084,0.17155 -0.8141,0.49012 -0.94628,0.92074 -0.0165,0.54305 -0.0957,1.11594 0.053,1.64371 0.17991,0.30771 0.36675,0.64474 0.71229,0.78797 0.28889,0.28762 0.76229,0.23715 1.13806,0.23519 0.30626,-0.14477 0.12378,-0.59175 0.17499,-0.85358 0.048,-0.24268 -0.10993,-0.40609 -0.28917,-0.52975 -0.0784,-0.21304 0.29267,-0.22045 0.43096,-0.25625 0.26852,-0.0558 0.64701,-0.11272 0.74189,0.2271 0.0681,0.51596 0.091,1.0634 -0.0276,1.57463 -0.26033,0.46292 -0.91769,0.35824 -1.37308,0.40902 -0.40507,0.0566 -0.78923,-0.0596 -1.15719,-0.21868 -0.26209,-0.0299 -0.45575,-0.24075 -0.69226,-0.33858 -0.0678,-0.14415 -0.19156,-0.22724 -0.30835,-0.32418 -0.0644,-0.16407 -0.12814,-0.32395 -0.25571,-0.4446 -0.0847,-0.46739 -0.35096,-0.94484 -0.15147,-1.41967 0.0617,-0.31025 0.0671,-0.6468 0.33258,-0.86725 0.1634,-0.33845 0.47677,-0.60418 0.81495,-0.75439 0.33789,-0.31086 0.87671,-0.12258 1.25164,-0.37959 0.0691,-0.0227 0.14233,-0.0308 0.21481,-0.0313 z m -7.00551,0.0693 c 0.33466,0.0552 0.66336,0.17508 1.00337,0.19465 0.13345,0.0801 0.21068,0.22668 0.36844,0.27201 0.36189,0.25059 0.53755,0.64421 0.69047,1.03756 0.19405,0.39556 0.0758,0.87761 0.0716,1.30261 -0.0409,0.30404 -0.19092,0.58342 -0.31123,0.86209 -0.20012,0.2209 -0.38328,0.48746 -0.64717,0.61983 -0.0763,0.26075 -0.46172,0.19245 -0.64801,0.35045 -0.57706,0.0931 -1.20135,0.16189 -1.73234,-0.13673 -0.40701,-0.0964 -0.69064,-0.47996 -0.91498,-0.80992 -0.10723,-0.2603 -0.27768,-0.49284 -0.25759,-0.79499 -0.0759,-0.76715 -0.0453,-1.63584 0.5609,-2.19762 0.15602,-0.2271 0.417,-0.29611 0.60508,-0.47902 0.35588,-0.0944 0.73767,-0.10587 1.09608,-0.21133 0.0382,-0.006 0.0767,-0.01 0.11538,-0.01 z m 23.48456,0.003 c 0.38148,0.0382 0.75066,0.17504 1.1425,0.17366 0.27875,0.006 0.48603,0.2164 0.73808,0.29972 0.39212,0.31916 0.68067,0.76464 0.76194,1.26987 0.21431,0.54651 -0.0561,1.0999 -0.19609,1.62368 -0.17519,0.12805 -0.20963,0.36843 -0.40202,0.49881 -0.20362,0.25596 -0.51197,0.36477 -0.75283,0.55997 -0.31616,0.077 -0.64059,0.13531 -0.95696,0.2256 -0.50242,0.065 -1.04483,0.0546 -1.51873,-0.14104 -0.26475,-0.11993 -0.31863,-0.3693 -0.27152,-0.64441 -0.006,-1.07291 0.0137,-2.15173 -0.009,-3.22097 -0.0596,-0.0972 -0.47396,-0.26842 -0.26026,-0.4031 0.55211,-0.15909 1.15278,-0.20843 1.72467,-0.24179 z m -30.20163,5.3e-4 c 0.31623,-0.003 0.60766,0.16842 0.93249,0.17222 0.44324,0.0957 0.64657,0.5928 0.80284,0.96464 -0.13532,0.37404 -0.26002,0.80686 -0.63553,1.01561 -0.15223,0.28487 0.29552,0.45098 0.36076,0.70462 0.0245,0.25291 0.0753,0.50282 0.23819,0.70773 0.0882,0.23728 0.0898,0.54612 0.3682,0.65401 0.24045,0.1699 -0.044,0.51033 -0.284,0.45143 -0.51777,0.13038 -0.90617,-0.44876 -0.93345,-0.90587 -0.13286,-0.28533 -0.17293,-0.60047 -0.31591,-0.879 -0.18916,-0.25096 -0.63088,-0.3787 -0.89376,-0.1901 -0.0976,0.2612 0.0533,0.55801 -0.0104,0.83235 -0.0636,0.34797 0.092,0.87626 -0.31938,1.05075 -0.23505,0.17848 -0.616,0.0132 -0.55538,-0.30973 -0.0744,-1.21565 -0.003,-2.44806 -0.0529,-3.65735 -0.15799,-0.0231 -0.5885,-0.22276 -0.31663,-0.40203 0.52526,-0.13159 1.07635,-0.18655 1.61492,-0.20928 z m 3.25935,0.1119 c 0.37476,-0.0378 0.35434,0.46208 0.3664,0.71025 0.002,1.18133 0.0526,2.37272 -0.0476,3.54995 -0.156,0.24948 -0.69017,0.44901 -0.8128,0.0802 -0.13922,-1.27023 0.0253,-2.56231 -0.10278,-3.83312 -0.0964,-0.14035 -0.40372,-0.0998 -0.42541,-0.32167 0.27338,-0.20199 0.69717,-0.13393 1.0222,-0.18565 z m 31.4697,0.0483 c 0.52089,0.0253 1.06694,-0.0352 1.57175,0.0998 0.14343,0.29129 0.17026,0.69713 -0.0212,0.96739 -0.19869,0.007 -0.34364,-0.26991 -0.47158,-0.4115 -0.1578,-0.27159 -0.57671,-0.24808 -0.85598,-0.26903 -0.27864,-0.0443 -0.57644,0.12691 -0.55482,0.43718 0.0204,0.30974 -0.12556,0.69533 0.0715,0.9608 0.43486,0.15549 0.92601,0.0436 1.38009,0.0968 0.0268,0.20335 0.10087,0.5797 -0.21996,0.57281 -0.38636,0.0779 -0.83845,-0.0782 -1.19203,0.10974 -0.0686,0.43792 -0.0723,0.91721 -0.038,1.34447 0.46717,-0.0328 0.9691,0.11387 1.41835,-0.0421 0.2046,-0.10757 0.25458,-0.33735 0.37528,-0.50097 0.1082,-0.11919 0.43971,-0.15767 0.37611,0.08 -0.0595,0.30243 -0.0944,0.64262 -0.26086,0.90083 -0.82104,0.11008 -1.6702,0.0955 -2.48889,0.0116 -0.30276,-0.15134 -0.17912,-0.59696 -0.22739,-0.86713 -0.0166,-0.93759 0.005,-1.88079 -0.0222,-2.81487 -0.14223,-0.11625 -0.52372,-0.38535 -0.32395,-0.59619 0.48792,-0.0898 0.99007,-0.0674 1.48384,-0.0796 z m -26.72208,6.10498 c 0.42118,0.0186 0.80858,0.25037 1.23737,0.27285 0.19551,0.0524 0.31367,0.23062 0.51644,0.27838 0.52955,0.33478 0.81971,0.97456 0.7623,1.59237 -0.0248,0.40456 0.0237,0.86406 -0.16791,1.22573 -0.13416,0.11547 -0.13798,0.35291 -0.33078,0.42937 -0.0666,0.11202 -0.0826,0.21255 -0.22296,0.25846 -0.14712,0.20126 -0.37986,0.26146 -0.56501,0.41066 -0.85179,0.31977 -1.83847,0.47209 -2.68606,0.0546 -0.13636,-0.29082 -0.0446,-0.67236 -0.087,-0.99365 -0.0259,-0.96184 0.0127,-1.93531 -0.026,-2.88972 -0.089,-0.0808 -0.40294,-0.11812 -0.37911,-0.2701 0.29761,-0.20932 0.6942,-0.11971 1.02256,-0.26325 0.30527,-0.0629 0.61558,-0.099 0.92614,-0.10567 z m 11.38973,0.0455 c 0.36341,0.0589 0.7828,0.12098 1.08097,0.34433 0.0677,0.29203 0.11036,0.66015 -0.0615,0.91595 -0.38901,-0.12756 -0.53347,-0.76635 -1.02328,-0.69969 -0.31633,-0.0326 -0.65988,0.0529 -0.78426,0.38246 -0.27438,0.31052 0.0593,0.76253 0.38919,0.83738 0.27725,0.0863 0.51133,0.28485 0.81124,0.32107 0.17791,0.0945 0.33818,0.21805 0.51548,0.30103 0.20483,0.15066 0.29254,0.38769 0.42001,0.58948 0.044,0.34252 0.0795,0.72759 -0.15435,1.0089 -0.15666,0.35774 -0.57045,0.50878 -0.91271,0.63709 -0.47621,0.17579 -1.02234,0.10318 -1.51333,0.0351 -0.46124,-0.0821 -0.33593,-0.61329 -0.34002,-0.94149 -0.0411,-0.15778 0.16802,-0.46151 0.28461,-0.22452 0.0882,0.3627 0.37211,0.74696 0.79384,0.66696 0.35859,0.0195 0.80943,0.0422 0.9963,-0.33725 0.14928,-0.26702 0.0622,-0.63654 -0.24694,-0.74456 -0.27998,-0.19314 -0.61797,-0.2269 -0.90275,-0.40946 -0.38629,-0.13545 -0.76437,-0.41425 -0.93429,-0.78977 -0.0713,-0.31318 -0.14333,-0.61323 -0.013,-0.9253 0.0788,-0.53325 0.63217,-0.78038 1.10748,-0.84542 0.16454,-0.0494 0.31028,-0.13258 0.48729,-0.12233 z m -6.06762,0.001 c 0.39301,-0.004 0.75729,0.17067 1.13122,0.27669 0.3638,0.19606 0.75317,0.48332 0.82419,0.91403 0.34264,0.34889 0.15424,0.88751 0.20547,1.32899 -0.006,0.34658 0.0527,0.72996 -0.22202,0.98803 -0.088,0.4514 -0.52259,0.70448 -0.85705,0.95924 -0.39218,0.0968 -0.74913,0.32455 -1.17008,0.26984 -0.37272,0.0367 -0.72766,-0.0525 -1.05951,-0.2112 -0.23748,-0.0766 -0.4324,-0.25669 -0.63302,-0.38559 -0.10092,-0.28036 -0.38727,-0.46476 -0.3983,-0.78029 -0.27463,-0.49443 -0.20754,-1.10162 -0.12137,-1.63951 0.18251,-0.31067 0.16977,-0.72542 0.49545,-0.94389 0.30363,-0.25989 0.59037,-0.60398 1.02484,-0.60015 0.27782,-0.0315 0.48848,-0.22976 0.78018,-0.17619 z m 8.60988,0.0766 c 0.35145,0.0987 0.19439,0.57894 0.24191,0.84338 0.0383,0.84171 -0.0703,1.69929 0.0775,2.53135 0.0837,0.31353 0.35346,0.51629 0.62666,0.64189 0.44744,0.12448 0.80977,-0.20759 1.23377,-0.24107 0.0788,-1.1824 -0.0539,-2.40796 0.0831,-3.59673 0.20806,-0.11828 0.56232,-0.12687 0.74024,0.0494 0.13363,1.04513 0.0338,2.11385 0.0663,3.16784 -0.0705,0.35787 0.18419,0.87743 -0.22165,1.06898 -0.19632,0.19075 -0.58037,0.18447 -0.63241,-0.13433 -0.13273,-0.17182 -0.32533,0.1356 -0.49294,0.10422 -0.32369,0.0863 -0.61941,0.28265 -0.97099,0.2262 -0.2482,0.0225 -0.4842,-0.0427 -0.67967,-0.18542 -0.56172,-0.2149 -0.60408,-0.88629 -0.61946,-1.40384 -0.0496,-0.8111 0.0447,-1.64286 -0.0898,-2.44511 -0.0505,-0.17299 -0.45157,-0.21912 -0.28341,-0.4326 0.27204,-0.14795 0.62656,-0.0733 0.92086,-0.19418 z m 4.48017,0.087 c 0.14199,0.0176 0.43334,-0.0611 0.37167,0.1877 0.0874,1.25889 0.0302,2.54928 0.11706,3.79138 0.39113,-0.0501 0.84158,0.0927 1.20391,-0.0879 0.0933,-0.14266 0.32923,-0.14748 0.31313,-0.3764 -0.0186,-0.27417 0.27835,-0.38149 0.48155,-0.23107 0.17073,0.16601 -0.11861,0.40752 -0.10122,0.60327 -0.035,0.21395 -0.0565,0.53027 -0.35045,0.50541 -0.76253,0.0895 -1.56892,0.21368 -2.31702,-0.0118 -0.17259,-0.15512 -0.0446,-0.47338 -0.0976,-0.68011 -0.0444,-1.05537 0.0809,-2.12377 -0.065,-3.1716 -0.0531,-0.23569 -0.47033,-0.0574 -0.47146,-0.34505 0.16305,-0.25601 0.56124,-0.12932 0.81747,-0.18302 0.0327,1.9e-4 0.0653,-7.9e-4 0.098,-7.9e-4 z"
       id="path13-4" /><path
       style="fill:#a02c2c;fill-opacity:1;stroke-width:0.178079;filter:url(#filter54)"
       d="m -228.87594,464.41185 c 0.0177,1.19236 -0.0354,2.41403 0.0265,3.58809 0.51241,-0.0485 1.12624,0.14298 1.5498,-0.23903 0.33412,-0.18006 0.49503,-0.54935 0.67691,-0.85681 0.0537,-0.49057 0.0897,-1.01082 -0.0257,-1.49319 -0.19173,-0.27255 -0.29599,-0.61054 -0.62714,-0.76231 -0.25274,-0.0772 -0.43768,-0.30439 -0.72668,-0.25858 -0.28704,0.007 -0.60658,-0.0386 -0.87373,0.0218 z"
       id="path14-4" /><path
       style="fill:#a02c2c;fill-opacity:1;stroke-width:0.178079;filter:url(#filter55)"
       d="m -223.50574,464.39266 c -0.33082,0.26457 -0.61507,0.59263 -0.70234,1.01597 -0.18763,0.37483 -0.15787,0.85409 -0.0338,1.2448 0.15848,0.32601 0.10783,0.74798 0.44088,0.98047 0.20573,0.30599 0.48655,0.44885 0.85718,0.36604 0.35636,0.0339 0.74607,-0.007 0.96308,-0.33282 0.20289,-0.21082 0.22693,-0.51918 0.34961,-0.77634 0.1292,-0.57492 0.0665,-1.18489 -0.18255,-1.71722 0.0308,-0.23961 -0.2485,-0.30598 -0.2876,-0.50949 -0.22122,-0.0642 -0.35598,-0.31916 -0.62054,-0.27405 -0.26065,-0.005 -0.52567,-0.0125 -0.7839,0.003 z"
       id="path15-5" /><path
       style="fill:#a02c2c;fill-opacity:1;stroke-width:0.178079;filter:url(#filter56)"
       d="m -229.88447,458.03731 c -0.4729,0.0115 -0.81107,0.45027 -0.9602,0.8597 -0.24164,0.39213 -0.14739,0.90382 -0.12665,1.34399 0.0243,0.27387 0.22651,0.47806 0.28136,0.74503 0.20992,0.36156 0.54665,0.76193 1.01669,0.67052 0.35102,-0.0204 0.7773,0.10121 0.96464,-0.28793 0.33291,-0.28872 0.28151,-0.76188 0.47746,-1.11935 0.10965,-0.44118 -0.18943,-0.82708 -0.17535,-1.26027 -0.0662,-0.23857 -0.24443,-0.43063 -0.37959,-0.62798 -0.29798,-0.30377 -0.69053,-0.3567 -1.09836,-0.32371 z"
       id="path16-4" /><path
       style="fill:#a02c2c;fill-opacity:1;stroke-width:0.178079;filter:url(#filter57)"
       d="m -236.36659,458.00349 c -0.29787,0.057 -0.19856,0.49096 -0.24203,0.70906 0.03,0.33329 -0.0835,0.74982 0.12953,1.03348 0.28148,0.10786 0.46,-0.25444 0.73832,-0.25271 0.26481,-0.14828 0.24933,-0.53764 0.25582,-0.8074 -0.0246,-0.22573 -0.11333,-0.43913 -0.32143,-0.53863 -0.16355,-0.10632 -0.36931,-0.13338 -0.56021,-0.1438 z"
       id="path17-1" /><path
       style="fill:#a02c2c;fill-opacity:1;stroke-width:0.178079;filter:url(#filter58)"
       d="m -218.98024,458.00733 c -0.32696,-0.0399 -0.36601,0.23617 -0.31538,0.51188 0.0363,0.44873 -0.0652,0.94223 0.0636,1.37026 0.10655,-0.083 0.24682,-0.1385 0.38307,-0.19754 0.24926,-0.18048 0.64689,-0.23718 0.72033,-0.59619 -0.002,-0.27037 0.1333,-0.70165 -0.18194,-0.8411 -0.16593,-0.18877 -0.42736,-0.24779 -0.66972,-0.24731 z"
       id="path18-2" /><path
       style="fill:#a02c2c;fill-opacity:1;stroke-width:0.178079;filter:url(#filter59)"
       d="m -206.14013,458.03539 c -0.14602,0.01 -0.42475,-0.044 -0.35765,0.2003 -0.0273,1.11295 -0.0566,2.24541 -0.0203,3.34654 0.45757,0.0866 0.97166,0.10482 1.40828,-0.0732 0.33895,-0.28024 0.80228,-0.59266 0.75343,-1.09513 -0.0327,-0.51662 0.0917,-1.07502 -0.0906,-1.56683 -0.35147,-0.48008 -0.88897,-0.85329 -1.5071,-0.81219 -0.062,-5.3e-4 -0.12409,-2.7e-4 -0.18614,5.2e-4 z"
       id="path19-4" /><path
       style="fill:#a02c2c;fill-opacity:1;stroke-width:0.178079;filter:url(#filter60)"
       d="m -214.79535,458.54248 c -0.0272,0.42934 -0.31309,0.77389 -0.37683,1.19203 -0.0956,0.113 -0.14817,0.33922 0.076,0.31363 0.29791,-0.009 0.67482,0.11504 0.92841,-0.0758 0.011,-0.17329 -0.24399,-0.24997 -0.22836,-0.4434 0.007,-0.34921 -0.31071,-0.55677 -0.32572,-0.90317 -0.0288,-0.022 0.009,-0.13268 -0.0735,-0.0833 z"
       id="path20-8" /><path
       style="fill:#a02c2c;fill-opacity:1;stroke-width:0.178079;filter:url(#filter61)"
       d="m -214.83349,418.26956 c -0.36844,0.0857 -0.24615,0.55534 -0.44808,0.79205 -0.10109,0.28569 -0.18653,0.57895 -0.32802,0.84362 0.10127,0.22403 0.45632,0.10585 0.65241,0.15479 0.23879,-0.0547 0.60279,0.14546 0.77746,-0.0791 0.11177,-0.29209 -0.25764,-0.47458 -0.23136,-0.76351 -7.9e-4,-0.2839 -0.28907,-0.42238 -0.27213,-0.71193 -0.0254,-0.0775 -0.0388,-0.23506 -0.15028,-0.23591 z"
       id="path21-4" /><path
       style="fill:#a02c2c;fill-opacity:1;stroke-width:0.178079;filter:url(#filter62)"
       d="m -209.87094,417.28753 c -0.34612,-0.01 -0.2146,0.47266 -0.24675,0.68375 0.0251,0.51964 -0.0242,1.06552 0.0864,1.56971 0.32109,0.12507 0.6561,-0.0662 0.92242,-0.22872 0.2433,0.0233 0.30677,-0.25052 0.4506,-0.3712 0.0323,-0.42402 0.16898,-0.9848 -0.22512,-1.28606 -0.18939,-0.14559 -0.42598,-0.2097 -0.63661,-0.32406 -0.11313,-0.0364 -0.23241,-0.0494 -0.35093,-0.0434 z"
       id="path22-7" /><path
       style="fill:#a02c2c;fill-opacity:1;stroke-width:0.178079;filter:url(#filter63)"
       d="m -204.34603,418.27028 c -0.33085,0.0635 -0.11752,0.50709 -0.34373,0.68626 -0.15415,0.26379 -0.0971,0.59964 -0.3207,0.83163 -0.12035,0.17378 0.0257,0.34197 0.22535,0.27477 0.3819,-0.0266 0.80906,0.0773 1.16517,-0.0748 0.0985,-0.24303 -0.24063,-0.42353 -0.20209,-0.68159 -0.0805,-0.29316 -0.30528,-0.53213 -0.27393,-0.85381 -0.0198,-0.12093 -0.12812,-0.20156 -0.25007,-0.18242 z"
       id="path23-3" /><path
       style="fill:#a02c2c;fill-opacity:1;stroke-width:0.178079;filter:url(#filter64)"
       d="m -193.14423,418.29235 c -0.37155,0.006 -0.20618,0.50154 -0.4163,0.69801 -0.1207,0.2974 -0.17282,0.62074 -0.36424,0.88716 -0.0476,0.21714 0.31778,0.13377 0.43799,0.16118 0.32419,-0.0339 0.70595,0.0818 1.00039,-0.0709 0.0475,-0.3263 -0.27584,-0.59242 -0.27705,-0.92494 -0.11346,-0.20453 -0.20679,-0.41215 -0.26026,-0.65101 -0.0198,-0.049 -0.0583,-0.11186 -0.12053,-0.0995 z"
       id="path24-3" /><path
       style="fill:#a02c2c;fill-opacity:1;stroke-width:0.178079;filter:url(#filter65)"
       d="m -193.69869,374.1213 c -0.24605,0.0177 -0.34374,0.31599 -0.59164,0.34313 -0.16205,0.18053 -0.4411,0.17538 -0.5493,0.40586 -0.31662,0.13382 -0.5686,0.38018 -0.88283,0.5336 -0.29791,0.19904 -0.59366,0.40317 -0.88285,0.60938 -0.36728,0.0871 -0.5869,0.48018 -0.953,0.58408 -0.16778,0.71096 0.0286,1.4839 -0.18326,2.19229 -0.36979,0.33222 -0.90464,0.355 -1.36726,0.4819 -0.3934,0.17607 -0.84308,0.1695 -1.23653,0.35753 -0.35957,0.0708 -0.92713,0.0899 -1.02029,0.53479 -0.0852,0.23012 -0.24513,0.42571 -0.31231,0.66468 -0.19871,0.23883 -0.20481,0.57665 -0.43068,0.7966 -0.0718,0.16672 -0.0328,0.39033 -0.23543,0.47507 -0.10245,0.17238 -0.0491,0.4109 -0.22836,0.54786 -0.12201,0.21389 -0.12665,0.47758 -0.31015,0.65028 -0.0641,0.2533 -0.18672,0.47686 -0.32263,0.69059 -0.0825,0.30206 -0.26475,0.57396 -0.38103,0.86521 -0.0905,0.0971 -0.67721,0.85704 -0.41985,0.83954 2.64985,0.10152 5.79595,1.75939 8.44773,1.78519 3.28037,0.0152 6.50261,-2.21464 9.78081,-2.14144 0.25551,0.10583 0.86113,0.10391 1.12499,0.17054 3.14545,-0.0164 7.92321,0.0482 11.06926,-0.0185 2.97745,-0.008 3.90941,-0.25343 6.87971,-0.30233 -0.006,-0.41477 -0.15298,-0.81921 -0.29288,-1.20259 -0.0778,-0.34656 0.20202,-0.59669 0.30775,-0.88632 0.3012,-0.25806 0.35147,-0.71408 0.66768,-0.95156 2.7e-4,-0.22986 0.27905,-0.46173 0.0653,-0.67283 -0.0383,-0.25137 -0.13848,-0.47646 -0.27393,-0.69155 -0.0397,-0.32714 -0.2784,-0.58047 -0.33762,-0.90419 -0.1458,-0.23881 -0.18532,-0.52267 -0.31531,-0.76074 -0.18417,-0.23546 -0.16403,-0.57785 -0.36088,-0.8158 -0.0455,-0.24128 -0.13593,-0.45979 -0.2611,-0.67152 -0.0666,-0.23666 -0.0919,-0.63306 -0.44526,-0.59571 -0.61518,-0.0444 -1.2505,-0.20962 -1.86133,-0.0861 -0.37795,0.16129 -0.67689,0.44516 -1.05634,0.60901 -0.30637,0.16099 -0.6019,0.34927 -0.90771,0.50183 -0.25703,0.0294 -0.39532,-0.2808 -0.64346,-0.3303 -0.22177,-0.0835 -0.40682,-0.21108 -0.57052,-0.36544 -0.29766,-0.0865 -0.51422,-0.36387 -0.85394,-0.29756 -0.54296,0.0125 -1.03468,0.2716 -1.58106,0.292 -0.50719,0.12274 -1.0137,0.2287 -1.53365,0.2934 -0.58906,0.2185 -1.24399,0.19722 -1.84112,0.41126 -0.407,0.0618 -0.84561,0.0181 -1.22489,0.2256 -0.40587,0.13639 -0.89522,8.1e-4 -1.26687,0.21204 -0.4913,0.28722 -1.11577,0.0331 -1.60869,0.33942 -0.43002,0.10978 -0.90851,0.0485 -1.31713,0.25726 -0.35013,0.094 -0.28078,-0.42804 -0.31938,-0.63614 -0.0691,-0.79474 -0.0388,-1.62309 -0.27046,-2.38958 -0.28058,-0.11688 -0.60646,0.10073 -0.90679,0.0754 -1.97341,0.15895 -3.95562,0.11438 -5.93405,0.13738 -0.26442,-0.18477 -0.23288,-0.53144 -0.46654,-0.73029 -0.0832,-0.3039 -0.30622,-0.54684 -0.41282,-0.84158 -0.14904,-0.28106 -0.44539,-0.35752 -0.69298,-0.50733 -0.15193,-0.0591 -0.31632,-0.0844 -0.47891,-0.0832 z m 12.45463,9.97234 c 0.30453,-0.0465 0.57662,0.0832 0.8158,0.25343 0.24429,0.0616 0.51967,-0.41644 0.72009,-0.12186 0.0693,0.20629 -0.23285,0.23359 -0.2527,0.41641 -0.18925,0.35913 -0.68314,0.46341 -0.98119,0.17535 -0.23706,-0.12761 -0.57792,-0.11033 -0.70893,0.15304 -0.28645,0.032 -0.27063,-0.33364 -0.14513,-0.49725 0.11539,-0.19499 0.29605,-0.41717 0.55206,-0.37912 z"
       id="path25-5"
       sodipodi:nodetypes="ccccccccccccccccccccccccccccccccccccccccccccccccccccccccccccccc" /><path
       style="fill:#a02c2c;fill-opacity:1;stroke-width:0.178079;filter:url(#filter66)"
       d="m -172.27389,392.31841 c -0.46027,0.001 -0.96938,0.2248 -1.10556,0.69791 -0.28806,0.31472 -0.1134,0.80622 -0.16878,1.19035 -0.006,0.38767 -0.031,0.80769 0.23774,1.11935 0.1146,0.31776 0.41693,0.5863 0.72573,0.71469 0.52506,0.10527 1.18515,0.0726 1.48839,-0.4452 0.18425,-0.37205 0.36154,-0.75857 0.33102,-1.18927 0.0166,-0.39528 -0.0178,-0.79762 -0.20521,-1.14862 -0.0688,-0.36603 -0.39384,-0.65044 -0.68315,-0.85837 -0.19519,-0.0745 -0.41353,-0.0811 -0.62018,-0.0808 z"
       id="path26-7" /><path
       style="fill:#a02c2c;fill-opacity:1;stroke-width:0.178079;filter:url(#filter67)"
       d="m -176.18161,385.7244 c -0.45508,-0.0279 -1.02678,0.12094 -1.14357,0.6287 -0.30113,0.32747 -0.19042,0.80312 -0.21447,1.21026 -0.0806,0.69738 0.23988,1.42776 0.83069,1.81233 0.31751,0.17475 0.69462,0.27166 1.03492,0.0968 0.19615,-0.0543 0.39776,-0.10522 0.49485,-0.29576 0.51594,-0.61239 0.55757,-1.52221 0.34685,-2.26461 -0.12304,-0.2851 -0.15134,-0.62413 -0.42529,-0.83115 -0.22918,-0.27689 -0.57215,-0.38791 -0.92398,-0.35656 z"
       id="path27-4" /><path
       style="fill:#a02c2c;fill-opacity:1;stroke-width:0.178079;filter:url(#filter68)"
       d="m -188.78352,392.27992 c -0.31409,0.0627 -0.26309,0.52213 -0.29228,0.7611 0.0228,0.37258 -0.0651,0.8007 0.0909,1.14286 0.34312,0.10575 0.78154,-0.0366 1.01872,-0.30199 0.12876,-0.24268 0.36601,-0.47518 0.25187,-0.78222 -0.0941,-0.20782 -0.2073,-0.41621 -0.31915,-0.61083 -0.22124,-0.12823 -0.49831,-0.17852 -0.75007,-0.20892 z"
       id="path28-6" /><path
       style="fill:#a02c2c;fill-opacity:1;stroke-width:0.178079;filter:url(#filter69)"
       d="m -185.29881,393.03131 c -0.27508,0.0469 -0.16112,0.44732 -0.31855,0.61754 -0.0967,0.21634 -0.27057,0.52882 -0.14176,0.75319 0.34052,0.0415 0.72543,0.0719 1.04991,-0.0368 0.0154,-0.43259 -0.30582,-0.79385 -0.38104,-1.21362 -0.0313,-0.0883 -0.11811,-0.13168 -0.20856,-0.12029 z"
       id="path29-5" /><path
       style="fill:#a02c2c;fill-opacity:1;stroke-width:0.178079;filter:url(#filter70)"
       d="m -181.15482,386.37588 c -0.11689,0.21464 -0.12072,0.4858 -0.27789,0.69143 -0.0735,0.21903 -0.0927,0.46042 -0.2214,0.64896 0.1976,0.15349 0.53594,0.0532 0.77872,0.085 0.18129,0.0434 0.40757,-0.0585 0.30093,-0.27427 -0.22071,-0.28024 -0.21156,-0.66948 -0.4392,-0.95252 -0.0556,-0.0507 -0.0506,-0.19783 -0.14116,-0.19862 z"
       id="path30-6" /></g></svg>
